<svg width="100" height="100" viewBox="0 0 100 100" fill="none" xmlns="http://www.w3.org/2000/svg">
<path fill-rule="evenodd" clip-rule="evenodd" d="M91.6664 60.2499L91.2358 57.5971C89.7901 53.3851 89.0714 51.6844 89.0744 49.985C89.0774 48.2886 89.7996 46.5935 91.2358 42.4027L91.6664 39.7499C91.6664 37.0694 90.333 34.486 87.9997 32.8471C84.2327 30.2424 82.6154 29.2827 81.5764 27.8911C80.5545 26.5224 80.0922 24.7359 78.6941 20.5555C77.5275 17.0416 74.1108 14.6666 70.2914 14.6666H70.2636C65.6231 14.6806 63.7221 14.8141 62.0336 14.278C60.3665 13.7487 58.9067 12.5666 55.2219 9.97214C53.6664 8.87492 51.833 8.33325 49.9997 8.33325C48.1664 8.33325 46.333 8.87492 44.7775 9.98603C41.0441 12.6112 39.5802 13.7924 37.9103 14.3136C36.2317 14.8375 34.3449 14.6944 29.7358 14.6805H29.708C25.8886 14.6805 22.4719 17.0555 21.3052 20.5694C19.8982 24.7629 19.4331 26.5486 18.4096 27.9164C17.3722 29.3029 15.761 30.2602 12.0136 32.861C9.66634 34.4999 8.33301 37.0833 8.33301 39.7638L8.76356 42.4166C10.2093 46.6286 10.928 48.3293 10.925 50.0287C10.922 51.7251 10.1998 53.4203 8.76356 57.611L8.33301 60.2499C8.33301 62.9305 9.66634 65.5138 12.0136 67.1388C15.7612 69.7398 17.3723 70.7041 18.4098 72.0959C19.4331 73.4689 19.8983 75.2579 21.3052 79.4444C22.4719 82.9583 25.8886 85.3333 29.708 85.3333H29.7358C34.3762 85.3193 36.2773 85.1857 37.9658 85.7218C39.6329 86.2511 41.0927 87.4332 44.7775 90.0277C46.333 91.1249 48.1664 91.6666 49.9997 91.6666C51.833 91.6666 53.6664 91.1249 55.2219 90.0138C58.9066 87.4193 60.3665 86.2372 62.0336 85.7079C63.7221 85.1719 65.6231 85.3054 70.2636 85.3194H70.2914C74.1108 85.3194 77.5275 82.9444 78.6941 79.4305C80.0922 75.2501 80.5545 73.4636 81.5764 72.0948C82.6154 70.7033 84.2327 69.7435 87.9997 67.1388C90.333 65.5138 91.6664 62.9305 91.6664 60.2499Z" fill="#12A028"/>
<path d="M64.3744 34.375L70.8327 40.9918L44.791 68.2292L29.166 52.6711L35.6244 46.0543L44.791 54.9955L64.3744 34.375Z" fill="white"/>
</svg>
