<svg width="51" height="50" viewBox="0 0 51 50" fill="none" xmlns="http://www.w3.org/2000/svg">
<path fill-rule="evenodd" clip-rule="evenodd" d="M22.7056 0.102121C21.032 0.455017 19.2133 1.32631 17.8261 2.43959L16.8427 3.22876H8.58323C0.577523 3.22876 0.318952 3.23798 0.161901 3.53128C-0.0434857 3.91515 -0.0519336 10.569 0.152671 10.8936C0.260135 11.0643 0.696563 11.1495 1.75369 11.2065L3.20672 11.2847V19.7317V28.1786L1.79889 28.222C0.703759 28.2556 0.347578 28.323 0.195532 28.5256C0.0597546 28.7064 0 29.4906 0 31.0935C0 33.3008 0.0151732 33.4117 0.347734 33.6446C0.538886 33.7785 0.890844 33.8882 1.12986 33.8882H1.56426V41.5963C1.56426 48.3198 1.59538 49.3491 1.80781 49.6523L2.05121 50H25.0281H48.005L48.2484 49.6523C48.4608 49.3491 48.4919 48.3198 48.4919 41.5963V33.8882H48.9263C49.1653 33.8882 49.5173 33.7785 49.7084 33.6446C50.041 33.4117 50.0562 33.3008 50.0562 31.0935C50.0562 29.4906 49.9964 28.7064 49.8606 28.5256C49.7086 28.323 49.3524 28.2556 48.2573 28.222L46.8495 28.1786V19.7317V11.2847L48.3025 11.2065C49.3596 11.1495 49.796 11.0643 49.9035 10.8936C50.1081 10.569 50.0997 3.91515 49.8943 3.53128C49.7372 3.23798 49.4787 3.22876 41.473 3.22876H33.2135L32.229 2.43865C31.1362 1.56173 29.999 0.949009 28.4695 0.413721C27.6579 0.129652 27.0424 0.0478417 25.4192 0.00826603C24.3007 -0.018952 23.0797 0.0232826 22.7056 0.102121ZM27.998 1.99644C29.4398 2.38187 30.6657 3.0667 31.6208 4.02011C32.7504 5.14763 32.9263 5.58014 32.927 7.23122C32.9276 8.6112 32.9107 8.67815 32.3446 9.53067C29.4355 13.9118 20.498 13.8834 17.6748 9.4839C17.2653 8.84568 17.1492 8.47965 17.0897 7.6398C16.9953 6.30627 17.2106 5.53619 17.948 4.56791C19.0492 3.12207 21.2773 1.97141 23.586 1.65652C24.8255 1.48758 26.6085 1.62477 27.998 1.99644ZM23.3856 3.56585C21.8702 4.34861 21.0646 5.61659 21.061 7.22496C21.0574 8.7645 21.9191 10.1644 23.2905 10.8473C24.0662 11.2334 25.99 11.2334 26.7657 10.8473C29.2447 9.6128 29.7938 6.23948 27.8184 4.37973C26.5776 3.21171 24.7285 2.8721 23.3856 3.56585ZM15.7327 5.14497C15.2643 6.74833 15.2648 7.65153 15.735 9.29181L15.8364 9.64549L8.73934 9.60466L1.64247 9.56399L1.59867 7.38154C1.57474 6.18129 1.59007 5.10774 1.63293 4.99605C1.69518 4.83368 3.12789 4.79301 8.77313 4.79301H15.8354L15.7327 5.14497ZM26.1135 5.10101C27.8361 5.97981 27.8035 8.55254 26.0597 9.34437C25.253 9.71072 24.8032 9.71072 23.9965 9.34437C22.2708 8.56068 22.2182 6.00218 23.9093 5.10868C24.6472 4.71887 25.3596 4.71636 26.1135 5.10101ZM48.4137 7.21761V9.56399L41.3168 9.60466L34.2198 9.64549L34.3231 9.29181C34.7919 7.6861 34.7914 6.78415 34.3212 5.1434L34.2198 4.78973L41.3168 4.83055L48.4137 4.87122V7.21761ZM6.41345 19.7403V28.2741L5.67043 28.2263L4.92741 28.1786L4.88673 19.8881C4.86437 15.3283 4.8797 11.5096 4.92099 11.402C4.96557 11.2853 5.28171 11.2065 5.70468 11.2065H6.41345V19.7403ZM17.846 12.0133C20.4605 14.116 24.0209 14.9417 27.4984 14.2524C28.9988 13.9549 31.2321 12.8821 32.3566 11.9187L33.1935 11.2016L37.5187 11.2431L41.8438 11.2847V19.7317V28.1786H40.3578H38.8718L38.7935 24.0179C38.7333 20.8121 38.6661 19.798 38.5007 19.5988C38.3224 19.3845 37.9635 19.3411 36.389 19.3429C35.3455 19.3443 34.3862 19.4121 34.2572 19.4936C34.0612 19.6171 34.0097 20.3455 33.9443 23.9101C33.8685 28.0483 33.8566 28.1786 33.5533 28.1786C33.2503 28.1786 33.2379 28.0483 33.1622 24.0179C33.102 20.8121 33.0347 19.798 32.8694 19.5988C32.6912 19.3847 32.3294 19.3406 30.7484 19.3406C29.4681 19.3406 28.7556 19.4047 28.5788 19.5361C28.3451 19.7096 28.3108 20.2075 28.2752 23.9551L28.2348 28.1786H25.0281H21.8214L21.7799 23.5772C21.7521 20.5011 21.6809 18.9067 21.5651 18.7671C21.4276 18.6015 20.4004 18.5585 16.5811 18.5585C12.2993 18.5585 11.7466 18.5869 11.5555 18.8169C11.3887 19.0177 11.3235 20.0891 11.2626 23.627L11.1844 28.1786H9.69839H8.21234L8.17167 19.8881C8.1493 15.3283 8.16463 11.5096 8.20593 11.402C8.26318 11.2521 9.2812 11.2065 12.5618 11.2065H16.8427L17.846 12.0133ZM45.1288 19.7317V28.1786L44.3858 28.2263L43.6427 28.2741V19.7317V11.1893L44.3858 11.237L45.1288 11.2847V19.7317ZM20.1789 20.9048V21.687H16.5811H12.9833V20.9048V20.1227H16.5811H20.1789V20.9048ZM31.4415 24.5894V28.2741L30.6985 28.2263L29.9555 28.1786L29.9133 24.741C29.89 22.8503 29.9054 21.2136 29.9474 21.1041C29.9938 20.9832 30.3029 20.9048 30.7328 20.9048H31.4415V24.5894ZM37.0729 24.5894V28.2741L36.3298 28.2263L35.5868 28.1786L35.5446 24.741C35.5213 22.8503 35.5368 21.2136 35.5787 21.1041C35.6251 20.9832 35.9342 20.9048 36.3641 20.9048H37.0729V24.5894ZM20.1789 24.1898V24.9719H16.5811H12.9833V24.1898V23.4077H16.5811H20.1789V24.1898ZM20.1007 27.3965V28.1786L16.542 28.2207L12.9833 28.2628V27.3965V26.5302L16.542 26.5723L20.1007 26.6144V27.3965ZM48.4597 31.0334L48.5057 32.1675H25.035H1.56426V31.0986C1.56426 30.5106 1.61134 29.9825 1.66906 29.9248C1.72663 29.8672 12.2678 29.8378 25.0938 29.8597L48.4137 29.8993L48.4597 31.0334ZM46.7712 41.162V48.4357H45.5981H44.4249V43.0689C44.4249 38.6809 44.3843 37.6468 44.2029 37.3985C43.9851 37.1008 43.6086 37.0949 25.0281 37.0949C6.44755 37.0949 6.07103 37.1008 5.85329 37.3985C5.67183 37.6468 5.63132 38.6809 5.63132 43.0689V48.4357H4.45813H3.28494V41.162V33.8882H25.0281H46.7712V41.162ZM42.7824 43.5866V48.3575H25.0281H7.27379L7.23234 43.7449C7.2095 41.2078 7.22498 39.0429 7.26675 38.934C7.32744 38.7755 10.8838 38.7439 25.0625 38.7758L42.7824 38.8156V43.5866ZM27.8173 46.1285C27.3673 46.4911 27.3549 46.8662 27.779 47.2902C28.1206 47.6317 28.2769 47.6786 28.8278 47.6048C29.8136 47.4726 30.1573 46.8386 29.5644 46.2458C29.2051 45.8865 28.2013 45.8191 27.8173 46.1285ZM30.9734 46.2134C30.5069 46.5912 30.6399 47.2816 31.2214 47.5027C31.4451 47.5878 33.7158 47.6536 36.4226 47.6536C41.6067 47.6536 41.9252 47.6056 41.9197 46.8235C41.9139 45.9997 42.0075 46.0146 36.4777 45.9661C31.6493 45.9237 31.3125 45.9389 30.9734 46.2134Z" fill="white"/>
</svg>
