<svg width="24" height="25" viewBox="0 0 24 25" fill="none" xmlns="http://www.w3.org/2000/svg">
<path d="M19.5 4.06409H4.5C3.25736 4.06409 2.25 5.07145 2.25 6.31409V19.8141C2.25 21.0567 3.25736 22.0641 4.5 22.0641H19.5C20.7426 22.0641 21.75 21.0567 21.75 19.8141V6.31409C21.75 5.07145 20.7426 4.06409 19.5 4.06409Z" stroke="#12A028" stroke-width="2" stroke-linejoin="round"/>
<path d="M13.875 12.3141C14.4963 12.3141 15 11.8104 15 11.1891C15 10.5678 14.4963 10.0641 13.875 10.0641C13.2537 10.0641 12.75 10.5678 12.75 11.1891C12.75 11.8104 13.2537 12.3141 13.875 12.3141Z" fill="#12A028"/>
<path d="M17.625 12.3141C18.2463 12.3141 18.75 11.8104 18.75 11.1891C18.75 10.5678 18.2463 10.0641 17.625 10.0641C17.0037 10.0641 16.5 10.5678 16.5 11.1891C16.5 11.8104 17.0037 12.3141 17.625 12.3141Z" fill="#12A028"/>
<path d="M13.875 16.0641C14.4963 16.0641 15 15.5604 15 14.9391C15 14.3178 14.4963 13.8141 13.875 13.8141C13.2537 13.8141 12.75 14.3178 12.75 14.9391C12.75 15.5604 13.2537 16.0641 13.875 16.0641Z" fill="#12A028"/>
<path d="M17.625 16.0641C18.2463 16.0641 18.75 15.5604 18.75 14.9391C18.75 14.3178 18.2463 13.8141 17.625 13.8141C17.0037 13.8141 16.5 14.3178 16.5 14.9391C16.5 15.5604 17.0037 16.0641 17.625 16.0641Z" fill="#12A028"/>
<path d="M6.375 16.0641C6.99632 16.0641 7.5 15.5604 7.5 14.9391C7.5 14.3178 6.99632 13.8141 6.375 13.8141C5.75368 13.8141 5.25 14.3178 5.25 14.9391C5.25 15.5604 5.75368 16.0641 6.375 16.0641Z" fill="#12A028"/>
<path d="M10.125 16.0641C10.7463 16.0641 11.25 15.5604 11.25 14.9391C11.25 14.3178 10.7463 13.8141 10.125 13.8141C9.50368 13.8141 9 14.3178 9 14.9391C9 15.5604 9.50368 16.0641 10.125 16.0641Z" fill="#12A028"/>
<path d="M6.375 19.8141C6.99632 19.8141 7.5 19.3104 7.5 18.6891C7.5 18.0678 6.99632 17.5641 6.375 17.5641C5.75368 17.5641 5.25 18.0678 5.25 18.6891C5.25 19.3104 5.75368 19.8141 6.375 19.8141Z" fill="#12A028"/>
<path d="M10.125 19.8141C10.7463 19.8141 11.25 19.3104 11.25 18.6891C11.25 18.0678 10.7463 17.5641 10.125 17.5641C9.50368 17.5641 9 18.0678 9 18.6891C9 19.3104 9.50368 19.8141 10.125 19.8141Z" fill="#12A028"/>
<path d="M13.875 19.8141C14.4963 19.8141 15 19.3104 15 18.6891C15 18.0678 14.4963 17.5641 13.875 17.5641C13.2537 17.5641 12.75 18.0678 12.75 18.6891C12.75 19.3104 13.2537 19.8141 13.875 19.8141Z" fill="#12A028"/>
<path d="M18 2.56409V4.06409M6 2.56409V4.06409V2.56409Z" stroke="#12A028" stroke-width="2" stroke-linecap="round" stroke-linejoin="round"/>
<path d="M21.75 7.81409H2.25" stroke="#12A028" stroke-width="2" stroke-linejoin="round"/>
</svg>
