<svg width="24" height="24" viewBox="0 0 24 24" fill="none" xmlns="http://www.w3.org/2000/svg">
<path d="M19.0781 6.00012H8.67188C7.19624 6.00012 6 7.19636 6 8.672V19.0782C6 20.5539 7.19624 21.7501 8.67188 21.7501H19.0781C20.5538 21.7501 21.75 20.5539 21.75 19.0782V8.672C21.75 7.19636 20.5538 6.00012 19.0781 6.00012Z" stroke="white" stroke-width="2.1" stroke-linejoin="round"/>
<path d="M17.9766 6.00012L18 4.87512C17.998 4.17954 17.7208 3.51301 17.229 3.02115C16.7371 2.5293 16.0706 2.2521 15.375 2.25012H5.25C4.45507 2.25247 3.69338 2.5693 3.13128 3.1314C2.56917 3.6935 2.25235 4.4552 2.25 5.25012V15.3751C2.25198 16.0707 2.52918 16.7372 3.02103 17.2291C3.51289 17.7209 4.17942 17.9981 4.875 18.0001H6" stroke="white" stroke-width="2.1" stroke-linecap="round" stroke-linejoin="round"/>
</svg>
