<svg width="50" height="50" viewBox="0 0 50 50" fill="none" xmlns="http://www.w3.org/2000/svg">
<path fill-rule="evenodd" clip-rule="evenodd" d="M8.09923 0.229027C7.66433 0.465461 7.18021 1.31603 7.18021 1.84375C7.18021 2.43085 6.88737 2.96325 6.56436 2.96325C6.3934 2.96325 5.92085 2.75229 5.51424 2.49445C4.29566 1.7217 3.05223 1.98079 2.33512 3.15718C1.88475 3.8957 1.93757 4.64204 2.50326 5.53418C3.14443 6.54492 3.04895 6.95903 2.14103 7.10671C1.16842 7.26501 0.477712 7.63396 0.219401 8.13339C-0.0731335 8.69924 -0.0731335 10.0413 0.219401 10.6071C0.456928 11.0664 1.29562 11.558 1.84146 11.558C2.44341 11.558 2.96097 11.8502 2.96097 12.1901C2.96097 12.3701 2.75001 12.8241 2.49217 13.1988C1.77271 14.2446 1.83256 14.9686 2.7161 15.9035C3.34101 16.565 3.47744 16.6367 4.1097 16.6367C4.65039 16.6367 4.97761 16.5191 5.54018 16.1226C6.37199 15.5361 6.8147 15.5657 6.96113 16.2175C7.24475 17.4804 7.37367 17.8034 7.74137 18.171C8.586 19.0156 10.5192 18.8385 11.1782 17.8562C11.3624 17.5815 11.5593 17.0093 11.6157 16.5844C11.7515 15.5602 12.1419 15.4319 13.0795 16.1029C14.294 16.9719 15.2077 16.8553 16.2206 15.7016C16.886 14.9437 16.8935 14.1372 16.2438 13.1746C15.4765 12.0376 15.6251 11.6758 16.9376 11.4855C17.515 11.4019 17.8399 11.2433 18.2268 10.8564C18.7094 10.3738 18.7441 10.269 18.7441 9.29212C18.7441 8.31919 18.7081 8.20918 18.2362 7.7374C17.8588 7.36002 17.5275 7.19969 16.947 7.11327C15.6315 6.91746 15.4923 6.59243 16.2466 5.47917C16.8007 4.66142 16.8515 3.89617 16.4008 3.15718C15.6771 1.97017 14.2639 1.68263 13.1433 2.49445C12.0666 3.27438 11.6729 3.10983 11.4832 1.80062C11.3996 1.22321 11.241 0.898324 10.8541 0.511404C10.3843 0.0416619 10.2531 -0.00521867 9.42266 0.000406984C8.91979 0.00384489 8.32441 0.106669 8.09923 0.229027ZM9.84474 2.45491C10.0641 3.51144 10.7406 4.26434 11.7034 4.52359C12.3964 4.71018 12.8643 4.57938 13.6517 3.97884C14.2621 3.51332 14.3964 3.49988 14.7323 3.87117C14.9716 4.13558 14.9528 4.20902 14.444 4.9988C13.8297 5.95235 13.7971 6.20019 14.149 7.23313C14.4751 8.19027 14.9385 8.53375 16.0834 8.66658C16.804 8.75018 17.0346 8.8416 17.1079 9.0724C17.3003 9.67873 17.0553 9.96188 16.2406 10.0739C15.3262 10.1997 14.7853 10.5849 14.3642 11.4103C13.9271 12.2672 13.9787 12.7767 14.6003 13.7417C15.1091 14.5315 15.1279 14.6049 14.8886 14.8693C14.5451 15.2489 14.4839 15.2367 13.566 14.6052C12.6988 14.0088 12.4926 13.9683 11.6962 14.2385C10.5108 14.6406 10.1746 15.0886 9.91928 16.6069C9.82568 17.1637 9.78724 17.199 9.32562 17.1538C8.85885 17.1082 8.82228 17.0566 8.65226 16.2034C8.4513 15.1953 8.15454 14.7885 7.30366 14.3543C6.45263 13.9198 5.921 13.9811 4.99089 14.6209C4.19033 15.1717 4.16674 15.1773 3.8792 14.8896C3.59151 14.6021 3.59698 14.5779 4.13267 13.7464C4.78822 12.7288 4.81494 12.2389 4.2694 11.2366C3.8156 10.4029 3.72919 10.3469 2.49217 10.0858C1.65332 9.90875 1.63269 9.89156 1.63269 9.37025C1.63269 8.84472 1.64738 8.83316 2.53483 8.65548C3.5987 8.44233 3.98765 8.13495 4.39911 7.1825C4.76978 6.32427 4.69602 5.87344 4.02953 4.92801L3.52197 4.20793L3.86389 3.86617L4.20565 3.52426L4.91214 4.02228C5.80708 4.65314 6.27589 4.76909 6.90971 4.5164C8.11001 4.03791 8.40864 3.63271 8.65867 2.14284C8.74586 1.62388 8.80868 1.55684 9.20764 1.55684C9.6305 1.55684 9.66988 1.61231 9.84474 2.45491ZM7.72715 5.6806C7.00426 5.99642 6.27917 6.674 5.80974 7.47237C5.44751 8.0887 5.38313 8.37514 5.38313 9.37025C5.38313 10.3741 5.44626 10.6496 5.82334 11.2911C7.97031 14.9437 13.6566 13.1537 13.2272 8.96052C13.0812 7.53644 12.1169 6.21613 10.8299 5.67841C10.1835 5.40838 8.34738 5.40963 7.72715 5.6806ZM19.9403 6.5307C19.6049 6.90121 19.6128 7.22797 19.9645 7.54629C20.2213 7.77866 21.4822 7.80616 33.5485 7.84398C46.7061 7.88523 46.8542 7.88914 47.281 8.20793C47.5184 8.38514 47.8575 8.72424 48.0347 8.96161C48.3525 9.38729 48.3575 9.55199 48.3989 21.1799L48.4408 32.9668H25.3884H2.3359V25.412C2.3359 18.2914 2.31949 17.8423 2.05008 17.5986C1.67738 17.2613 1.3525 17.2713 1.02778 17.6301C0.786029 17.8972 0.768683 18.8145 0.808219 29.1549C0.851349 40.3772 0.851662 40.3901 1.19373 41.0294C1.59237 41.7744 2.48451 42.6029 3.21803 42.9093C3.64589 43.0881 7.35117 43.1242 25.279 43.1242C41.1715 43.1242 46.9652 43.0768 47.3569 42.9436C48.1475 42.6748 49.0099 41.9367 49.4919 41.1169L49.9196 40.3895L49.9632 24.9971C50.003 10.9301 49.9843 9.54543 49.7458 8.91645C49.3905 7.97978 48.516 7.05139 47.5756 6.61259L46.7942 6.24801L33.4966 6.24645C20.8113 6.24489 20.187 6.25801 19.9403 6.5307ZM10.7652 7.58348C11.7879 8.50749 11.973 9.75186 11.2404 10.7806C10.7917 11.4106 10.1576 11.7143 9.28983 11.7143C7.83998 11.7143 6.94894 10.8212 6.95394 9.37306C6.95909 7.89086 7.83248 7.02795 9.32843 7.02685C10.0493 7.02623 10.2229 7.09358 10.7652 7.58348ZM24.0201 10.0836C23.5013 10.3652 23.1926 10.9331 23.0485 11.8705C22.8731 13.0118 22.8194 13.1043 22.2707 13.2071C21.838 13.2884 21.621 13.2102 20.9599 12.7353C19.5765 11.7415 18.7253 11.8719 17.5855 13.2527C16.7512 14.2635 16.8113 14.9973 17.8304 16.2426C18.3321 16.8555 18.3757 17.1269 18.0476 17.5954C17.8832 17.8301 17.5771 17.9489 16.9445 18.0233C15.3974 18.205 14.8374 18.8542 14.8374 20.4653C14.8374 21.3965 15.0725 22.1085 15.4965 22.4602C15.6126 22.5566 16.1622 22.7085 16.7179 22.7979C18.1642 23.0308 18.5292 23.7043 17.7261 24.6586C17.167 25.3231 16.8338 26.2013 16.9465 26.7138C17.0678 27.2659 18.0055 28.3683 18.6276 28.69C19.3029 29.0391 19.9983 28.8778 20.9517 28.1507C21.7203 27.5646 21.7868 27.5433 22.2454 27.7355C22.6716 27.9141 22.7488 28.0463 22.8966 28.8508C23.2147 30.5832 23.7504 31.0915 25.2581 31.0915C26.886 31.0915 27.4863 30.5966 27.7225 29.0601C27.8878 27.9834 27.9401 27.871 28.3647 27.6775C28.7179 27.5164 28.8673 27.5714 29.7863 28.2007C31.203 29.1708 31.7576 29.168 32.8076 28.186C34.0859 26.9903 34.1602 26.1577 33.1059 24.8458C32.6619 24.2932 32.6215 24.164 32.7509 23.7111C32.8873 23.2334 32.9628 23.187 33.9072 23.0018C35.6734 22.6556 36.128 22.0935 36.0537 20.3481C36.0105 19.3272 35.9589 19.1684 35.5334 18.7429C35.1627 18.3722 34.8442 18.2364 34.0519 18.1114C32.4815 17.8637 32.2849 17.3488 33.2343 15.9702C33.9888 14.8748 34.0177 14.1705 33.3425 13.3362C32.1836 11.9043 31.3308 11.7494 29.9274 12.7161C29.1481 13.2529 28.9943 13.304 28.5465 13.1755C28.0761 13.0407 28.0306 12.965 27.8659 12.0448C27.6773 10.9901 27.3038 10.3477 26.6987 10.0367C26.182 9.77124 24.543 9.79999 24.0201 10.0836ZM26.2271 12.691C26.4353 13.8733 26.7498 14.3383 27.6545 14.8006C28.6312 15.2995 29.1947 15.2542 30.0955 14.6045C31.1777 13.8237 31.2272 13.8128 31.6717 14.2572C32.1161 14.7017 32.1052 14.7512 31.3244 15.8333C30.6691 16.742 30.6376 17.2224 31.1615 18.3263C31.6228 19.2984 31.8733 19.471 33.1117 19.6704C34.2848 19.8593 34.3715 19.9121 34.3685 20.4355C34.3648 21.0776 34.2131 21.2023 33.2111 21.3874C32.7019 21.4815 32.1155 21.67 31.9075 21.8062C31.5224 22.0585 30.7767 23.5283 30.7767 24.0348C30.7767 24.1881 31.0655 24.7925 31.4185 25.3777L32.0605 26.4421L31.6121 26.8903L31.1638 27.3386L30.2345 26.6793C29.1428 25.9048 28.5854 25.8481 27.4496 26.3955C26.6245 26.7934 26.3368 27.218 26.1738 28.2787C25.9827 29.5228 25.9633 29.551 25.338 29.4984L24.7701 29.4507L24.5149 28.3226C24.2216 27.0262 24.0797 26.8135 23.2124 26.3711C22.196 25.8526 21.6064 25.9197 20.629 26.6651C20.1638 27.02 19.7075 27.2791 19.6151 27.2409C19.5227 27.2028 19.3207 26.9984 19.1658 26.7867C18.8871 26.4054 18.8903 26.3933 19.5174 25.5178C20.2536 24.4897 20.3203 23.916 19.8197 22.9203C19.3187 21.9234 19.0983 21.7451 18.1406 21.5604C16.463 21.2371 16.5563 21.2868 16.5563 20.7158C16.5563 20.057 16.7507 19.8979 17.7283 19.7565C18.9192 19.5841 19.2771 19.3324 19.75 18.3335C20.273 17.229 20.2114 16.7947 19.3668 15.6268L18.7494 14.7731L19.1666 14.3376C19.3962 14.098 19.6312 13.902 19.6889 13.902C19.7467 13.902 20.1027 14.1475 20.48 14.4476C21.3475 15.1373 21.948 15.255 22.9316 14.9282C23.9658 14.5848 24.333 14.1521 24.5399 13.0333C24.7891 11.6844 24.7688 11.7143 25.442 11.7143H26.0552L26.2271 12.691ZM24.5161 16.1606C21.1364 16.8353 19.8001 20.8391 22.1007 23.398C23.8964 25.3952 26.8745 25.3952 28.6702 23.398C30.1896 21.7081 30.2134 19.2792 28.7269 17.5906C27.6167 16.3292 26.1559 15.833 24.5161 16.1606ZM27.1027 18.1875C27.4232 18.4319 27.8168 18.9214 27.9775 19.2752C29.1953 21.957 25.998 24.5201 23.6596 22.7365C22.5897 21.9205 22.2317 20.5056 22.7884 19.2933C23.3294 18.1152 24.196 17.6142 25.562 17.69C26.324 17.7322 26.6391 17.8339 27.1027 18.1875ZM48.4058 37.4963L48.3569 40.307L47.7682 40.8952L47.1797 41.4834L25.5647 41.524L3.94968 41.5648L3.43212 41.2115C2.46544 40.5517 2.3359 40.081 2.3359 37.2276V34.6857H25.3953H48.4547L48.4058 37.4963ZM24.0905 36.2701C23.4363 36.6889 23.0935 37.3532 23.0935 38.2017C23.0935 39.0758 23.4459 39.729 24.153 40.166C25.2603 40.8503 26.8616 40.4478 27.4338 39.3413C27.7459 38.7376 27.7459 37.6659 27.4338 37.0622C26.8764 35.9845 25.1684 35.5797 24.0905 36.2701ZM25.7865 37.504C26.129 37.6873 26.1982 38.4204 25.9011 38.7174C25.798 38.8206 25.566 38.9049 25.3855 38.9049C24.937 38.9049 24.6823 38.6134 24.6823 38.1002C24.6823 37.4813 25.2108 37.196 25.7865 37.504ZM18.3776 45.129C18.1745 45.3534 18.119 45.739 18.119 46.926V48.4373H16.5805C15.2885 48.4373 15.0007 48.4831 14.7834 48.7231C14.4587 49.0819 14.4542 49.4382 14.7703 49.7545C14.9886 49.9728 16.1658 50 25.3723 50C35.2071 50 35.7418 49.9856 35.9875 49.7142C36.3122 49.3554 36.3167 48.9991 36.0006 48.6828C35.8103 48.4926 35.4055 48.4373 34.2035 48.4373H32.6519V46.9528C32.6519 45.6765 32.608 45.4243 32.3394 45.1557C31.9809 44.7972 31.5173 44.7502 31.2707 45.0472C31.1775 45.1594 31.081 45.9506 31.0563 46.8053L31.0111 48.3592L25.3464 48.4001L19.6817 48.4412V46.9007C19.6817 45.607 19.6359 45.319 19.3959 45.1018C19.0244 44.7656 18.6986 44.7744 18.3776 45.129Z" fill="#12A028"/>
</svg>
