<svg width="50" height="50" viewBox="0 0 50 50" fill="none" xmlns="http://www.w3.org/2000/svg">
<path fill-rule="evenodd" clip-rule="evenodd" d="M24.4773 0.285781C24.2561 0.53 24.2186 0.991875 24.2186 3.46625V6.36109L23.2419 6.45359C21.9877 6.5725 19.4637 7.39188 18.4026 8.02453C17.7711 8.40094 17.5654 8.61734 17.5276 8.94453C17.4893 9.27672 17.5673 9.41281 17.8759 9.55344C18.2188 9.70969 18.3976 9.66906 19.1755 9.25797C19.6715 8.99578 20.6751 8.58469 21.4057 8.34437C22.6126 7.94734 22.9412 7.90719 25 7.90625C27.136 7.90531 27.3511 7.93391 28.7506 8.40453C31.1364 9.20672 32.8864 10.4017 34.46 12.3036C35.8998 14.0436 37.1894 17.138 37.1894 18.8531V19.375H32.4283H27.6674L26.6723 18.8281C25.3436 18.0978 24.6548 18.0978 23.3488 18.8281L22.3707 19.375H17.5907H12.8106L12.8117 18.8672C12.8136 18.003 13.4067 15.8303 13.9205 14.8052C14.4828 13.6836 15.5579 12.1278 16.1536 11.5744C16.7012 11.0653 16.7069 10.3722 16.1654 10.1255C15.8036 9.96063 15.7081 10.0047 15.0566 10.6366C13.1368 12.4989 11.7794 15.4131 11.3317 18.6339C11.2479 19.2366 11.146 19.4197 10.7925 19.6023C10.1351 19.9423 9.40105 20.8612 9.28259 21.4928C9.22462 21.802 9.21915 22.3614 9.2704 22.7359L9.36386 23.4169L5.73486 23.4663L2.10587 23.5156L1.37857 23.9431C0.186825 24.6436 -0.318721 26.1314 0.207297 27.3903C0.457179 27.9881 1.40467 28.8616 1.95241 28.9991L2.34028 29.0964V39.3027C2.34028 48.3728 2.36763 49.5362 2.58579 49.7545C2.80676 49.9753 5.05507 50 25 50C44.9449 50 47.1932 49.9753 47.4142 49.7545C47.6324 49.5362 47.6597 48.3728 47.6597 39.3027V29.0964L48.0476 28.9991C48.5953 28.8616 49.5428 27.9881 49.7927 27.3903C50.3187 26.1314 49.8132 24.6436 48.6214 23.9431L47.8941 23.5156L44.2731 23.4663L40.6521 23.4169L40.7374 22.5903C40.7852 22.1267 40.7416 21.5181 40.6382 21.2047C40.4733 20.705 39.7133 19.8814 39.0221 19.4531C38.8543 19.3492 38.6877 18.8086 38.5243 17.8377C38.2358 16.1245 37.6338 14.4923 36.7123 12.9244C35.8046 11.3802 33.4193 9.03594 31.8761 8.17172C30.4129 7.35219 28.1263 6.58 26.795 6.45563L25.7814 6.36109V5.83672V5.3125H28.3286C30.1014 5.3125 30.9329 5.25547 31.0634 5.125C31.301 4.8875 31.3232 0.739218 31.0892 0.302187C30.9376 0.0190622 30.7324 0 27.8317 0C25.0309 0 24.7112 0.0271873 24.4773 0.285781ZM29.7726 1.76609C29.8223 1.96406 29.8412 2.50906 29.8146 2.97703L29.7664 3.82812L27.7739 3.87187L25.7814 3.91562V2.76516C25.7814 2.13234 25.8283 1.56766 25.8856 1.51047C25.9428 1.45312 26.8206 1.40625 27.8361 1.40625C29.6331 1.40625 29.6846 1.41578 29.7726 1.76609ZM28.2467 21.4336C29.942 22.3939 32.8762 24.0547 34.7671 25.1244C36.658 26.1939 38.3986 27.2059 38.6349 27.3733C39.1501 27.738 39.1983 28.3039 38.7521 28.75C38.4444 29.0577 38.2312 29.0625 25 29.0625C11.7688 29.0625 11.5556 29.0577 11.2479 28.75C10.8017 28.3039 10.8499 27.738 11.3651 27.3734C11.6014 27.2063 13.4474 26.1344 15.4673 24.9914C17.4871 23.8484 20.4055 22.1914 21.9527 21.3091C23.4998 20.4267 24.8553 19.7009 24.965 19.6963C25.0747 19.6914 26.5515 20.4733 28.2467 21.4336ZM19.5278 20.8984C19.5262 20.9628 18.5621 21.5606 17.3851 22.2266L15.2451 23.4375H13.3246C11.6208 23.4375 11.3693 23.4027 11.0955 23.1289C10.4381 22.4716 10.5931 21.3936 11.4042 20.9834C11.8372 20.7644 19.5326 20.6839 19.5278 20.8984ZM38.5958 20.9834C39.4069 21.3936 39.5619 22.4716 38.9045 23.1289C38.6305 23.4028 38.3792 23.4375 36.6713 23.4375H34.7468L32.6137 22.2266C31.4405 21.5606 30.478 20.9628 30.4751 20.8984C30.4651 20.6839 38.1628 20.7644 38.5958 20.9834ZM12.1855 25.1648C12.0566 25.253 11.6283 25.4934 11.2338 25.6994C10.4671 26.0995 9.52888 27.0503 9.52888 27.4273C9.52888 27.6217 8.98989 27.6562 5.95568 27.6562C2.57735 27.6562 2.35997 27.6386 1.97069 27.3323C1.63845 27.0711 1.55891 26.8772 1.55891 26.3281C1.55891 25.7791 1.63845 25.5852 1.97069 25.3239C2.36794 25.0114 2.55859 25.0002 7.40121 25.0023C10.8771 25.0041 12.3479 25.0541 12.1855 25.1648ZM48.0293 25.3239C48.3615 25.5852 48.4411 25.7791 48.4411 26.3281C48.4411 26.8772 48.3615 27.0711 48.0293 27.3323C47.64 27.6386 47.4226 27.6562 44.0443 27.6562C41.0101 27.6562 40.4711 27.6217 40.4711 27.4273C40.4711 27.0503 39.5328 26.0995 38.7662 25.6994C38.3717 25.4934 37.9434 25.253 37.8145 25.1648C37.6521 25.0541 39.1229 25.0041 42.5988 25.0023C47.4414 25.0002 47.6321 25.0114 48.0293 25.3239ZM10.0157 29.6058C10.2877 29.9045 10.6411 30.1906 10.801 30.2413C11.0791 30.3295 11.0916 30.6622 11.0916 37.9792C11.0916 44.3692 11.0563 45.625 10.8763 45.625C10.4543 45.625 10.2315 46.1506 10.154 47.3278L10.0758 48.5156H7.0285H3.98116L3.93427 47.6172L3.88739 46.7188H5.34511C6.41137 46.7188 6.89598 46.6534 7.14992 46.4755L7.49732 46.2323V38.9286C7.49732 33.4564 7.45028 31.578 7.30979 31.4375C7.18821 31.3159 6.55624 31.25 5.51264 31.25H3.90302V30.1562V29.0625H6.7122H9.52122L10.0157 29.6058ZM46.097 30.1562V31.25H44.4874C43.4438 31.25 42.8118 31.3159 42.6902 31.4375C42.5497 31.578 42.5027 33.4564 42.5027 38.9286V46.2323L42.8501 46.4755C43.104 46.6534 43.5886 46.7188 44.6549 46.7188H46.1126L46.0657 47.6172L46.0188 48.5156H42.9715H39.9242L39.846 47.3278C39.7685 46.1506 39.5457 45.625 39.1237 45.625C38.9507 45.625 38.9084 45.1825 38.9084 43.3784C38.9084 40.9172 38.8385 40.7152 38.0192 40.8091L37.5801 40.8594L37.5019 43.2031L37.4238 45.5469L36.6033 45.5941L35.7829 45.6414L35.782 40.0472C35.7815 36.6813 35.7168 34.2217 35.6198 33.872C34.9336 31.4017 31.4068 30.9678 30.1802 33.2028C29.9579 33.6073 29.9118 34.4878 29.8445 39.6094L29.7664 45.5469L28.8731 45.5936L27.9798 45.6403L27.9354 39.6561L27.8911 33.6719L27.5087 33.1069C26.8559 32.1427 26.1938 31.7969 25 31.7969C23.8062 31.7969 23.1441 32.1427 22.4913 33.1069L22.1089 33.6719L22.0646 39.6561L22.0202 45.6403L21.1269 45.5936L20.2336 45.5469L20.1555 39.6094C20.0882 34.4878 20.0421 33.6073 19.8198 33.2028C18.5932 30.9678 15.0664 31.4017 14.3802 33.872C14.2832 34.2217 14.2185 36.6813 14.218 40.0472L14.2171 45.6414L13.3967 45.5941L12.5762 45.5469L12.5329 38.3594C12.509 34.4062 12.5281 31.0133 12.5751 30.8194L12.6608 30.4669L25.0423 30.5069L37.4238 30.5469L37.4655 34.6747C37.493 37.4005 37.5658 38.8731 37.6799 39.0106C37.9123 39.2906 38.3625 39.2734 38.6629 38.9733C38.8738 38.7622 38.9084 38.1378 38.9084 34.5306C38.9084 30.5758 38.9251 30.3283 39.199 30.2413C39.3589 30.1906 39.7123 29.9045 39.9843 29.6058L40.4788 29.0625H43.2878H46.097V30.1562ZM6.0535 38.9453L6.09445 45.1562H4.99866H3.90302V38.8991V32.642L4.95787 32.6881L6.01272 32.7344L6.0535 38.9453ZM46.097 38.9062V45.1562H45.0031H43.9091V39.0105C43.9091 35.6302 43.956 32.8177 44.0134 32.7605C44.0706 32.7031 44.5628 32.6562 45.1073 32.6562H46.097V38.9062ZM18.3193 33.752L18.749 34.2238V39.9244V45.625H17.2644H15.7798V39.9116C15.7798 36.3081 15.8391 34.0877 15.94 33.8989C16.1821 33.4469 16.8889 33.1144 17.4207 33.2027C17.6786 33.2455 18.083 33.4927 18.3193 33.752ZM26.0939 33.6791L26.4846 34.0694V39.8081V45.5469H25H23.5154V39.8209C23.5154 34.315 23.5274 34.0817 23.8279 33.7478C24.4809 33.0225 25.4083 32.9944 26.0939 33.6791ZM33.4419 33.3609C33.6929 33.4908 33.9707 33.7322 34.0592 33.8977C34.1612 34.0881 34.2202 36.2919 34.2202 39.9116V45.625H32.7356H31.251V39.943C31.251 34.3752 31.2577 34.2523 31.5851 33.8363C32.1367 33.135 32.7174 32.9864 33.4419 33.3609ZM38.2528 47.7734L38.2051 48.5156H25H11.7949L11.7472 47.7734L11.6995 47.0312H25H38.3005L38.2528 47.7734Z" fill="#12A028"/>
</svg>
