<svg width="51" height="50" viewBox="0 0 51 50" fill="none" xmlns="http://www.w3.org/2000/svg">
<path fill-rule="evenodd" clip-rule="evenodd" d="M18.0728 0.350153C15.203 1.33221 13.1378 3.55563 12.4862 6.3654C12.2892 7.21513 12.2472 8.15287 12.2867 10.8281C12.3417 14.5569 12.3434 14.5645 13.5469 16.3885C14.0221 17.1088 14.0539 17.2527 14.1687 19.1966C14.3998 23.1077 15.5878 26.1755 17.5828 28.0115C18.2018 28.5814 18.2299 28.6479 18.2299 29.5438C18.2299 30.0589 18.2073 30.4804 18.1795 30.4804C18.0748 30.4804 7.10433 34.42 5.28401 35.1113C3.39909 35.8271 2.25469 36.8356 1.56934 38.3853C1.26509 39.0728 0 46.05 0 47.0398C0 47.7547 0.603787 48.8455 1.31098 49.4084L1.91477 49.889L13.5297 49.9676C19.9179 50.0108 30.3715 50.0108 36.7597 49.9676L48.3747 49.889L48.9784 49.4084C49.6856 48.8455 50.2894 47.7547 50.2894 47.0398C50.2894 45.8608 49.0169 39.0403 48.6457 38.2294C48.1864 37.226 47.0101 36.0129 46.0437 35.5457C45.6532 35.3569 43.178 34.4272 40.5433 33.4796C37.9085 32.5318 35.1515 31.5327 34.4168 31.2593C33.6821 30.9858 32.8513 30.6869 32.5703 30.595C32.0699 30.4311 32.0595 30.4086 32.0595 29.4919C32.0595 28.5686 32.0718 28.543 32.9697 27.583C34.5921 25.8488 35.5579 23.5276 36.0528 20.1738C36.3061 18.4565 36.614 17.5235 37.5225 15.7208L38.11 14.555V10.9276C38.11 7.87329 38.0664 7.176 37.8343 6.51438C37.4617 5.45201 36.5115 4.23595 35.7071 3.79168C35.1764 3.49858 35.0454 3.34002 35.0454 2.99003C35.0454 1.86214 34.3324 0.7971 33.2382 0.290434C32.657 0.0213855 32.0991 -0.000616068 25.8519 1.25497e-05C19.2789 0.000641168 19.0663 0.0100705 18.0728 0.350153ZM32.4383 1.78372C33.1503 2.08121 33.2382 2.26414 33.2382 3.44987V4.47137L34.1192 4.89145C35.1831 5.39874 36.0501 6.36241 36.2863 7.30031C36.4798 8.06895 36.4925 13.3116 36.3027 14.0578C36.2123 14.4133 36.1782 14.2503 36.1641 13.3959C36.14 11.9266 35.702 10.7616 34.7938 9.7516C34.4054 9.31959 33.7197 8.78683 33.2701 8.5676C31.887 7.89372 27.9322 6.59437 27.2663 6.59531C26.9206 6.59579 25.9305 6.85446 25.0661 7.17034C23.5526 7.72337 23.3961 7.74804 20.823 7.83668C18.3652 7.92138 18.0802 7.96209 17.2626 8.34539C15.5658 9.1409 14.4207 10.7626 14.1483 12.7556C14.052 13.4601 14.0207 12.7063 14.0392 10.1261L14.0653 6.50872L14.6154 5.43331C15.6113 3.48633 17.3763 2.16403 19.5657 1.72463C19.9115 1.65516 22.8309 1.59073 26.0534 1.5813C30.746 1.56747 32.0171 1.6077 32.4383 1.78372ZM29.9969 9.16385C32.8784 10.1865 33.4577 10.5448 34.0046 11.6422C34.4146 12.4649 34.4168 12.4894 34.4148 16.1709C34.4131 19.1829 34.3576 20.1361 34.117 21.2869C33.5001 24.2379 32.5531 25.8994 30.681 27.3149C30.0358 27.8027 29.1096 28.5022 28.6229 28.8694C27.5 29.7165 25.9258 30.2307 24.7528 30.1334C23.6791 30.0445 22.3482 29.3917 20.4309 28.0136C18.539 26.6539 17.9345 26.027 17.2422 24.7074C16.1618 22.648 15.9931 21.6572 15.915 16.9053C15.8544 13.2134 15.8789 12.5936 16.1102 11.9881C16.482 11.0143 17.067 10.3796 17.9877 9.95088C18.7042 9.61724 19.0053 9.58109 21.1373 9.57213C23.4749 9.56239 23.5083 9.55736 25.1447 8.95373C26.0523 8.61899 26.9814 8.33988 27.2094 8.33344C27.4373 8.327 28.6917 8.70071 29.9969 9.16385ZM21.2028 30.6407C22.6882 31.5232 23.8353 31.8948 25.0738 31.8948C26.34 31.8948 28.0584 31.3525 29.2917 30.5636C30.2895 29.9252 30.3311 29.914 30.3299 30.284C30.3286 30.6604 25.3668 33.9958 25.0092 33.8607C24.8677 33.8072 23.6734 33.0424 22.3554 32.1612C20.789 31.1139 19.9589 30.4638 19.9588 30.284C19.9586 30.1327 19.9993 30.009 20.049 30.009C20.0988 30.009 20.618 30.2933 21.2028 30.6407ZM20.8858 33.2674C21.8885 33.9359 22.9736 34.6705 23.2974 34.8999L23.8859 35.3169L22.9749 36.5526C22.4739 37.2321 21.8258 38.124 21.5347 38.5346C21.2435 38.9452 20.929 39.2795 20.8355 39.2775C20.66 39.2738 17.2084 33.0967 17.2084 32.786C17.2084 32.6132 18.4161 32.0771 18.8428 32.0605C18.964 32.0557 19.8833 32.5989 20.8858 33.2674ZM32.6151 32.437C32.9298 32.5685 33.1634 32.7425 33.1341 32.8238C32.8722 33.5515 29.5809 39.271 29.4412 39.2413C29.3409 39.22 28.6144 38.3262 27.8266 37.2552L26.3944 35.3077L26.9875 34.9018C31.584 31.7562 31.2918 31.8841 32.6151 32.437ZM13.9867 33.8478C13.9867 33.8847 13.5525 34.8012 13.0217 35.8847C12.08 37.8065 12.0629 37.8639 12.3181 38.2533C12.553 38.6119 12.6819 38.6525 13.5846 38.6525C15.071 38.6525 15.1462 38.7056 14.7532 39.4761C14.5071 39.9586 14.4659 40.1946 14.5833 40.452C14.6683 40.6389 16.5492 42.4455 18.7627 44.4667C20.9764 46.488 22.7874 48.199 22.7874 48.2689C22.7874 48.3388 18.3497 48.3959 12.926 48.3957C3.85154 48.3956 3.02082 48.3736 2.5162 48.1207C1.61366 47.6686 1.5992 47.4085 2.2558 43.448C2.89793 39.5761 3.09091 38.87 3.71073 38.1274C4.38571 37.3189 4.89018 37.0786 9.42393 35.4061C13.8066 33.7895 13.9867 33.728 13.9867 33.8478ZM38.9743 34.726C40.1412 35.1434 41.697 35.709 42.4317 35.9829C43.1664 36.2568 44.0858 36.5917 44.4747 36.7273C45.8382 37.2027 46.8083 38.1002 47.22 39.2673C47.3448 39.6212 47.711 41.5025 48.0336 43.448C48.6902 47.4085 48.6758 47.6686 47.7732 48.1207C47.2686 48.3736 46.4379 48.3956 37.3635 48.3957C31.9398 48.3959 27.502 48.3388 27.502 48.2689C27.502 48.199 29.3131 46.488 31.5268 44.4667C33.7403 42.4455 35.6211 40.6389 35.7061 40.452C35.8235 40.1946 35.7823 39.9586 35.5362 39.4761C35.1432 38.7056 35.2185 38.6525 36.7048 38.6525C37.6075 38.6525 37.7364 38.6119 37.9714 38.2533C38.2266 37.8639 38.2094 37.8065 37.2678 35.8847C36.7369 34.8012 36.3027 33.8772 36.3027 33.831C36.3027 33.7848 36.4265 33.7965 36.5777 33.8571C36.7289 33.9176 37.8074 34.3086 38.9743 34.726ZM18.5408 38.8882C19.8632 41.3084 21.1151 43.5892 21.3229 43.9564C21.5306 44.3237 21.6436 44.6243 21.5742 44.6243C21.3821 44.6243 16.587 40.1959 16.5301 39.966C16.5029 39.8555 16.662 39.4555 16.8837 39.0771C17.3148 38.3416 17.4056 37.5767 17.0984 37.2695C16.9947 37.1658 16.4819 37.0759 15.959 37.0699C14.3878 37.0517 14.3878 37.0515 15.1404 35.4833C15.6232 34.477 15.8388 34.1692 15.9653 34.3046C16.0595 34.4054 17.2185 36.468 18.5408 38.8882ZM35.5433 36.9521C35.3992 37.0108 34.8534 37.0638 34.3304 37.0699C33.8075 37.0759 33.2947 37.1658 33.191 37.2695C32.8838 37.5767 32.9746 38.3416 33.4057 39.0771C33.6274 39.4555 33.7865 39.8555 33.7593 39.966C33.7035 40.1919 28.909 44.6243 28.7204 44.6243C28.654 44.6243 28.8047 44.253 29.0555 43.7993C29.3063 43.3456 30.5183 41.1355 31.749 38.8882C32.9796 36.6409 34.0892 34.6365 34.2147 34.4341C34.4377 34.0747 34.4586 34.0981 35.1242 35.4556C35.7196 36.6703 35.7724 36.8587 35.5433 36.9521ZM26.0832 37.9305C26.0856 38.0088 25.9022 38.316 25.6754 38.6132C25.3278 39.0689 25.2786 39.2559 25.3614 39.8068C25.4155 40.1659 25.6313 41.5501 25.8412 42.8828L26.2226 45.3058L25.76 46.2223C25.5055 46.7264 25.2286 47.1388 25.1447 47.1388C25.0608 47.1388 24.7856 46.7299 24.5334 46.2301L24.0747 45.3213L24.4528 42.9692C25.09 39.0059 25.082 39.2599 24.5934 38.5216C24.1289 37.8195 24.126 37.8348 24.886 36.967L25.1922 36.6172L25.6355 37.2027C25.8794 37.5247 26.0809 37.8522 26.0832 37.9305ZM23.0084 41.0893C22.8782 41.8667 22.7508 42.5735 22.7252 42.6599C22.6684 42.8508 22.0302 41.8512 21.9062 41.3774C21.8438 41.1388 21.9947 40.8004 22.4137 40.2393C22.7415 39.8 23.0627 39.4936 23.1273 39.5581C23.1921 39.6229 23.1385 40.3119 23.0084 41.0893ZM27.9617 40.3455C28.5312 41.0876 28.5294 41.3444 27.9474 42.267L27.6006 42.8171L27.3334 41.2455C27.0809 39.7609 27.0813 39.2434 27.3347 39.5424C27.396 39.6147 27.678 39.9762 27.9617 40.3455Z" fill="#12A028"/>
</svg>
