<svg width="50" height="50" viewBox="0 0 50 50" fill="none" xmlns="http://www.w3.org/2000/svg">
<path fill-rule="evenodd" clip-rule="evenodd" d="M7.40405 0.227709C4.85216 1.33894 4.5849 4.79976 6.94419 6.18247L7.65053 6.59641V12.9617C7.65053 19.2321 7.65538 19.3313 7.97903 19.6245C8.27831 19.8957 8.62462 19.9263 11.8886 19.9692L15.4699 20.0166L15.4262 21.9999L15.3826 23.9833L12.396 24.0257L9.40938 24.068L9.22318 23.6183C8.96873 23.0044 7.99871 22.1102 7.35391 21.8954C6.02915 21.4539 4.65378 21.8579 3.70423 22.9674C2.70672 24.1327 2.70672 25.8646 3.70423 27.0299C4.65378 28.1394 6.02915 28.5434 7.35391 28.1019C7.99871 27.8872 8.96873 26.9929 9.22318 26.379L9.40938 25.9293L12.396 25.9716L15.3826 26.014L15.4244 29.9879C15.4736 34.6759 15.423 34.527 16.9688 34.527H17.9599V37.4949V40.4627H15.0163C12.3629 40.4627 12.0472 40.4908 11.8141 40.7484C11.4727 41.1257 11.4856 41.7567 11.8413 42.0787C12.0897 42.3034 12.5959 42.3372 15.7222 42.3372C19.1774 42.3372 19.3289 42.3244 19.6149 42.0087C19.8861 41.7094 19.9167 41.3631 19.9596 38.0991L20.007 34.5178L21.9903 34.5615L23.9737 34.6051L24.0161 37.5917L24.0584 40.5783L23.6087 40.7645C22.9948 41.019 22.1005 41.989 21.8858 42.6338C21.4443 43.9585 21.8483 45.3339 22.9578 46.2835C24.1231 47.281 25.855 47.281 27.0203 46.2835C28.1298 45.3339 28.5338 43.9585 28.0923 42.6338C27.8775 41.989 26.9833 41.019 26.3694 40.7645L25.9197 40.5783L25.962 37.5917L26.0044 34.6051L29.9783 34.5633C34.6663 34.5141 34.5174 34.5647 34.5174 33.0189V32.0278H37.4853H40.4531V37.7143V43.4009L39.7468 43.8148C37.8522 44.9251 37.5495 47.6493 39.1632 49.0661C40.5814 50.3113 42.1993 50.3113 43.6175 49.0661C45.2312 47.6493 44.9285 44.9251 43.0339 43.8148L42.3275 43.4009V37.0356C42.3275 30.7652 42.3227 30.666 41.9991 30.3728C41.6998 30.1016 41.3535 30.071 38.0895 30.0281L34.5082 29.9807L34.5519 27.9974L34.5955 26.014L37.5821 25.9716L40.5687 25.9293L40.7549 26.379C41.0094 26.9929 41.9794 27.8872 42.6242 28.1019C43.9489 28.5434 45.3243 28.1394 46.2739 27.0299C47.2714 25.8646 47.2714 24.1327 46.2739 22.9674C45.3243 21.8579 43.9489 21.4539 42.6242 21.8954C41.9794 22.1102 41.0094 23.0044 40.7549 23.6183L40.5687 24.068L37.5821 24.0257L34.5955 23.9833L34.5536 20.0094C34.5044 15.3214 34.5551 15.4703 33.0093 15.4703H32.0182V12.5024V9.53458H34.9618C37.6152 9.53458 37.9309 9.50646 38.164 9.24889C38.5054 8.87166 38.4925 8.2406 38.1368 7.91866C37.8884 7.69389 37.3822 7.66015 34.2559 7.66015C30.8007 7.66015 30.6492 7.67296 30.3632 7.98864C30.092 8.28793 30.0614 8.63423 30.0185 11.8982L29.9711 15.4795L27.9878 15.4358L26.0044 15.3922L25.962 12.4056L25.9197 9.41899L26.3694 9.2328C26.9833 8.97834 27.8775 8.00832 28.0923 7.36352C28.5338 6.03876 28.1298 4.6634 27.0203 3.71384C25.855 2.71633 24.1231 2.71633 22.9578 3.71384C21.8483 4.6634 21.4443 6.03876 21.8858 7.36352C22.1005 8.00832 22.9948 8.97834 23.6087 9.2328L24.0584 9.41899L24.0161 12.4056L23.9737 15.3922L19.9998 15.434C15.3118 15.4833 15.4607 15.4326 15.4607 16.9784V17.9695H12.4928H9.52497V12.283V6.59641L10.2313 6.18247C12.1259 5.07218 12.4286 2.34801 10.8149 0.931247C9.78395 0.0260517 8.48341 -0.242149 7.40405 0.227709ZM9.60307 2.53389C10.1106 3.13699 10.0498 3.80272 9.43828 4.34084C8.66289 5.02329 7.44763 4.5628 7.24597 3.51015C7.10664 2.78225 7.78549 2.03685 8.58775 2.03685C9.06698 2.03685 9.26739 2.13494 9.60307 2.53389ZM25.5996 5.07546C25.841 5.20027 26.1293 5.52158 26.2402 5.78962C26.6734 6.83509 25.5581 7.93382 24.5061 7.49801C23.8195 7.21372 23.4698 6.43661 23.7374 5.79056C23.93 5.3257 24.5267 4.86802 24.9578 4.85475C25.0693 4.85131 25.3583 4.95066 25.5996 5.07546ZM45.58 5.47019C44.3223 5.84976 43.421 7.16561 43.421 8.62205C43.421 12.2328 48.362 13.1082 49.7667 9.74624C50.6082 7.73247 48.9198 5.30242 46.7012 5.33398C46.3146 5.33945 45.8101 5.40083 45.58 5.47019ZM47.4702 7.59595C48.158 8.17452 48.1509 9.02599 47.4538 9.61268C46.8507 10.1202 46.185 10.0594 45.6469 9.44789C44.8807 8.57737 45.5211 7.24715 46.7283 7.20138C46.8721 7.19607 47.2059 7.37352 47.4702 7.59595ZM40.243 7.94584C39.8955 8.32995 39.917 8.84229 40.2969 9.22218C40.9074 9.83262 41.8589 9.43539 41.8589 8.57019C41.8589 7.77027 40.7794 7.35306 40.243 7.94584ZM32.5649 24.9987V32.5745H24.989H17.4132L17.3726 25.1549C17.3501 21.0741 17.3657 17.6467 17.4073 17.5384C17.4668 17.3833 19.0743 17.3503 25.0237 17.3822L32.5649 17.4228V24.9987ZM20.8426 20.8523L20.4592 21.2356V24.9987V28.7617L20.8426 29.1451L21.226 29.5285H24.989H28.7521L29.1354 29.1451L29.5189 28.7617V24.9987V21.2356L29.1354 20.8523L28.7521 20.4688H24.989H21.226L20.8426 20.8523ZM27.4883 24.9987V27.4979H24.989H22.4898V24.9987V22.4994H24.989H27.4883V24.9987ZM6.85531 23.8198C7.09664 23.9446 7.38499 24.2659 7.49589 24.534C7.92904 25.5794 6.81376 26.6781 5.76173 26.2423C5.07522 25.9581 4.72548 25.1809 4.99306 24.5349C5.18565 24.07 5.78235 23.6124 6.21347 23.5991C6.325 23.5956 6.61397 23.695 6.85531 23.8198ZM44.344 23.8198C44.5853 23.9446 44.8737 24.2659 44.9846 24.534C45.4177 25.5794 44.3024 26.6781 43.2504 26.2423C42.5639 25.9581 42.2141 25.1809 42.4817 24.5349C42.6743 24.07 43.271 23.6124 43.7021 23.5991C43.8137 23.5956 44.1026 23.695 44.344 23.8198ZM1.94273 38.4034C0.393667 39.1313 -0.411246 41.0586 0.211378 42.5488C0.812446 43.9874 2.15657 44.7911 3.69548 44.6324C6.6524 44.3272 7.63554 40.4723 5.20549 38.7118C4.34888 38.0914 2.89838 37.9543 1.94273 38.4034ZM4.33123 40.5494C5.01368 41.3248 4.55319 42.5401 3.50054 42.7417C2.77263 42.8811 2.02724 42.2022 2.02724 41.3999C2.02724 40.9207 2.12533 40.7203 2.52427 40.3846C3.12737 39.8771 3.79311 39.9379 4.33123 40.5494ZM8.37766 40.7484C8.0362 41.1257 8.04916 41.7567 8.40484 42.0787C9.313 42.9006 10.5467 41.6407 9.68117 40.7751C9.29129 40.3853 8.71693 40.3735 8.37766 40.7484ZM25.5996 42.5641C25.841 42.6889 26.1293 43.0102 26.2402 43.2783C26.6734 44.3237 25.5581 45.4225 24.5061 44.9867C23.8195 44.7024 23.4698 43.9253 23.7374 43.2792C23.93 42.8144 24.5267 42.3567 24.9578 42.3434C25.0693 42.34 25.3583 42.4393 25.5996 42.5641ZM42.2409 45.6565C42.8524 46.1946 42.9132 46.8603 42.4057 47.4634C42.07 47.8624 41.8696 47.9605 41.3903 47.9605C40.5881 47.9605 39.9092 47.2151 40.0486 46.4872C40.1662 45.8734 40.8113 45.305 41.3903 45.305C41.6385 45.305 42.0212 45.4631 42.2409 45.6565Z" fill="#12A028"/>
</svg>
