<svg width="51" height="50" viewBox="0 0 51 50" fill="none" xmlns="http://www.w3.org/2000/svg">
<path fill-rule="evenodd" clip-rule="evenodd" d="M26.8934 0.301616C25.1202 0.922399 23.806 2.26407 23.2082 4.06393C23.0042 4.67842 22.9644 5.3513 23.0075 7.46455C23.0551 9.79988 23.1017 10.1872 23.4173 10.8737C24.1555 12.4791 25.5432 13.6675 27.1907 14.1049L27.8597 14.2825V19.6877V25.0928L22.8497 28.3943L17.8398 31.6956L15.9634 31.8078C14.9315 31.8695 13.928 31.9584 13.7331 32.0053C13.4265 32.0791 13.3789 32.0281 13.3789 31.6257C13.3789 30.8639 12.9738 30.6399 11.5958 30.6399C10.4046 30.6399 10.3884 30.6345 10.3884 30.236C10.3884 30.0139 10.315 29.6952 10.2255 29.5277C10.0698 29.2368 9.84659 29.2233 5.22015 29.2233C1.66371 29.2233 0.327548 29.2735 0.188879 29.4122C0.0465903 29.5544 0 31.6902 0 38.0579C0 45.536 0.0286465 46.5434 0.247274 46.7621C0.553416 47.0681 0.795339 47.0744 1.18978 46.7861C1.48412 46.5709 1.49687 46.2731 1.54015 38.6013L1.58501 30.6399H5.19969H8.81437V39.5329V48.426H8.10607C7.45066 48.426 7.39777 48.3958 7.39777 48.0221C7.39777 47.418 7.1176 47.0094 6.70317 47.0094C6.24498 47.0094 6.02462 47.2647 5.95568 47.8751L5.90248 48.3473L3.21095 48.426C0.424507 48.5075 0 48.6108 0 49.2078C0 49.357 0.129539 49.5963 0.287883 49.7395C0.541926 49.9695 1.11943 50 5.22157 50C9.52251 50 9.88673 49.9786 10.1279 49.7121C10.2711 49.5538 10.3884 49.1996 10.3884 48.9251V48.426H11.6232C12.9694 48.426 13.3789 48.2077 13.3789 47.4903C13.3789 47.1928 13.4406 47.1471 13.7331 47.2276C14.1809 47.3507 18.7715 48.2718 21.5637 48.7987C24.8508 49.4192 28.4244 49.8838 29.9846 49.8936C31.5461 49.9035 32.5113 49.6345 34.5492 48.6209C37.1639 47.3204 41.0767 44.7561 45.4722 41.4625C48.9337 38.8687 49.1462 38.6778 49.7552 37.6139C50.6329 36.0809 50.5246 34.6268 49.4437 33.4279C48.6987 32.6015 47.8423 32.2217 46.7147 32.2173C45.9644 32.2145 45.5457 32.3406 44.1765 32.9815L42.5367 33.7491L35.9853 29.4186L29.4337 25.0882L29.4387 23.9683L29.4436 22.8486L30.1826 22.3997C30.7618 22.0478 30.9732 21.989 31.1613 22.1282C31.6719 22.5058 32.7407 22.9334 33.3937 23.0214C34.6367 23.1887 35.7108 22.6372 37.3701 20.9793C39.7558 18.5957 40.7732 16.6482 40.2303 15.5043C39.8921 14.7915 39.4657 14.5582 38.3353 14.4674C36.2437 14.2996 32.1367 15.5936 31.0503 16.7628C30.2958 17.5748 30.0071 18.3552 30.022 19.5432C30.035 20.5759 29.8957 21.0385 29.5719 21.0385C29.4959 21.0385 29.4337 19.5184 29.4337 17.6606V14.2825L30.1026 14.1049C31.1224 13.8342 32.3604 13.0642 32.9536 12.3318C34.1406 10.8661 34.3562 9.96735 34.2879 6.77262C34.2353 4.30806 34.226 4.25014 33.7179 3.21917C32.4416 0.628377 29.5234 -0.619013 26.8934 0.301616ZM30.5031 2.00184C33.697 3.59787 33.5783 7.95831 30.2994 9.49201C28.7843 10.2006 26.9353 9.84065 25.6841 8.59342C23.6869 6.60263 24.2087 3.33848 26.7322 2.03584C28.0897 1.33526 29.1499 1.32566 30.5031 2.00184ZM28.1048 3.28748C27.9129 3.56136 27.8597 4.09038 27.8597 5.72717C27.8597 7.60715 27.8913 7.8486 28.1745 8.13176C28.3476 8.3049 28.5601 8.44656 28.6467 8.44656C28.7333 8.44656 28.9457 8.3049 29.1189 8.13176C29.4021 7.8486 29.4337 7.60715 29.4337 5.72717C29.4337 3.50139 29.2746 2.93758 28.6467 2.93758C28.4833 2.93758 28.2395 3.09498 28.1048 3.28748ZM26.6244 10.9873C28.3124 11.6784 30.5663 11.3586 32.0767 10.2135C32.5263 9.87276 32.6202 9.8438 32.5335 10.0728C32.4734 10.2313 32.4243 10.4292 32.4243 10.5124C32.4243 10.5955 32.098 11.0125 31.6991 11.4389C30.8955 12.2981 29.6967 12.8537 28.6467 12.8537C27.7117 12.8537 26.4263 12.305 25.7913 11.6348C24.6432 10.4235 24.2845 9.49988 25.2472 10.2341C25.5415 10.4588 26.1614 10.7976 26.6244 10.9873ZM38.6286 15.9399C38.7656 15.9924 38.8777 16.1566 38.8777 16.3049C38.8777 17.0856 36.568 19.9572 35.0628 21.0473C34.3453 21.5672 33.1946 21.6846 32.6588 21.2929C32.38 21.089 32.4166 21.0396 33.2258 20.5219C34.3976 19.7722 34.5629 19.5564 34.3395 19.0663C34.0877 18.5134 33.4732 18.5686 32.4243 19.2385L31.5586 19.7916L31.5071 19.375C31.4366 18.8039 31.7482 18.115 32.2795 17.668C33.3531 16.7646 37.697 15.5823 38.6286 15.9399ZM34.7853 30.4035C38.0316 32.5455 40.7447 34.3501 40.8141 34.4135C40.8837 34.4768 40.0144 34.9408 38.8822 35.4445C37.2388 36.1756 36.8053 36.4345 36.7314 36.7287C36.6805 36.9314 36.7263 37.2026 36.8332 37.3314C37.2623 37.8484 37.6932 37.6972 43.1759 35.1047C44.8908 34.2939 46.469 33.6305 46.6831 33.6305C46.8973 33.6305 47.3062 33.7281 47.5919 33.8475C48.8848 34.3877 49.2002 35.8531 48.2941 37.109C47.6904 37.9457 48.0315 37.6566 44.5464 40.2867C41.2196 42.7976 36.9368 45.6643 34.7853 46.8202C32.4998 48.0481 31.3694 48.426 29.9816 48.426C28.352 48.426 23.2761 47.6447 17.9435 46.5731L13.4576 45.6715L13.4164 39.595L13.3753 33.5182L14.3446 33.417C17.0527 33.1339 19.6118 33.3951 22.4716 34.2465C25.807 35.2394 33.3068 37.8702 33.6348 38.1623C34.3405 38.7908 34.2961 39.8101 33.5302 40.5762C32.9371 41.1693 32.7745 41.1647 27.6049 40.4128C21.9733 39.5937 21.3029 39.5284 21.0119 39.7698C20.7119 40.0188 20.7108 40.4676 21.0092 40.766C21.2708 41.0276 21.5683 41.0795 27.9589 41.9791C33.201 42.717 33.3928 42.7069 34.5555 41.6353C35.3815 40.8738 35.6299 40.2 35.5405 38.9633C35.464 37.9073 35.1507 37.377 34.2551 36.7874C33.4474 36.2556 22.2226 32.4808 20.5716 32.1858C20.4156 32.158 20.2864 32.0741 20.2845 31.9993C20.2797 31.8078 28.5337 26.3835 28.7254 26.4521C28.812 26.4831 31.5389 28.2613 34.7853 30.4035ZM11.805 39.6206V47.0275L11.136 46.979L10.4671 46.9307L10.4261 39.5723L10.3852 32.2139H11.0951H11.805V39.6206Z" fill="#12A028"/>
</svg>
