<svg width="50" height="50" viewBox="0 0 50 50" fill="none" xmlns="http://www.w3.org/2000/svg">
<path fill-rule="evenodd" clip-rule="evenodd" d="M22.3285 0.032279C11.1967 1.44416 2.68721 9.2697 0.396049 20.2021C-0.128106 22.7025 -0.132644 27.115 0.386345 29.5928C1.12586 33.1246 2.45119 36.3212 4.31195 39.0617L5.21533 40.392L4.93314 41.018C4.32384 42.37 4.63561 43.7701 5.80647 44.941C6.67447 45.809 7.35154 46.1034 8.47732 46.1023C9.24297 46.1015 10.5209 45.5191 11.0906 44.9114C12.3824 43.5335 12.324 41.1407 10.9654 39.7821C10.0341 38.8508 8.27683 38.4414 7.11724 38.8856C6.72503 39.0357 6.66007 38.9962 6.17239 38.3109C4.12585 35.435 2.72618 31.9298 2.20093 28.3652C1.88885 26.2477 1.9779 22.0997 2.37387 20.3039C4.37549 11.2289 11.2317 4.37216 20.3173 2.35928C22.0667 1.97176 26.5452 1.87801 28.5639 2.18665C29.6989 2.36022 30.271 2.38667 30.4793 2.27508C31.0437 1.97317 31.0577 0.866481 30.5002 0.633436C29.6283 0.269236 28.0704 0.0739108 25.6152 0.0213233C24.1088 -0.0109179 22.6298 -0.00606615 22.3285 0.032279ZM33.2924 2.03828C32.8479 2.51141 32.9478 3.09566 33.5395 3.48334C33.9036 3.72186 33.9895 3.72562 34.3567 3.51965C34.5824 3.39288 34.834 3.09879 34.9159 2.86606C35.0394 2.51469 35.0018 2.37571 34.695 2.04923C34.2282 1.55231 33.7524 1.54855 33.2924 2.03828ZM40.0925 4.21972C38.6937 4.88098 37.9597 6.0102 37.9462 7.52163C37.9329 9.00112 38.7892 10.32 40.161 10.9331C40.9151 11.2701 42.1673 11.3316 42.8611 11.0658C43.2534 10.9157 43.3183 10.9552 43.806 11.6405C45.8525 14.5164 47.2522 18.0216 47.7775 21.5861C48.0895 23.7037 48.0005 27.8517 47.6045 29.6475C45.6032 38.7214 38.7233 45.6007 29.661 47.5898C28.0629 47.9405 23.9899 48.0729 22.1034 47.8355C20.7681 47.6674 20.5446 47.6744 20.207 47.8957C19.8254 48.1457 19.6919 48.7944 19.9441 49.1722C20.3421 49.7684 22.8423 50.0991 26.0035 49.9736C36.417 49.5605 45.3622 42.8362 48.7433 32.8795C49.665 30.1653 49.9426 28.361 49.9479 25.054C49.9519 22.5398 49.8969 21.8142 49.592 20.3586C48.8525 16.8268 47.5272 13.6302 45.6664 10.8897L44.7631 9.55939L45.0452 8.93335C45.6545 7.58141 45.3428 6.18127 44.1719 5.01041C42.9457 3.78415 41.5757 3.51855 40.0925 4.21972ZM42.4957 6.10442C43.0116 6.37127 43.3009 6.94614 43.3009 7.70427C43.3009 8.45193 42.4622 9.32463 41.7437 9.32463C40.6808 9.32463 39.8577 8.50154 39.8577 7.43868C39.8577 6.712 40.7301 5.88139 41.4932 5.88139C41.8074 5.88139 42.2584 5.98172 42.4957 6.10442ZM23.8852 6.79385C22.8647 7.44337 21.404 9.10191 20.8957 10.1881C20.3019 11.4571 20.0881 12.712 20.1749 14.4189L20.2469 15.8352L19.214 15.6176C17.9589 15.3533 15.9252 15.4766 15.129 15.8654C14.3903 16.2261 14.1562 16.9627 14.1486 18.95C14.1439 20.1946 14.2164 20.7235 14.5027 21.5325C14.857 22.5341 15.7236 24.0585 16.0551 24.2634C16.3875 24.4688 16.214 24.6475 15.4812 24.8542C14.5914 25.1054 14.3858 25.4466 14.1654 27.0363C13.6063 31.0707 16.3698 35.1152 20.3947 36.1531C20.9237 36.2894 21.9624 36.401 22.7032 36.401H24.0501V39.7417C24.0501 42.7794 24.0761 43.1059 24.3364 43.3414C24.713 43.6823 25.3464 43.6711 25.6661 43.3178C25.8829 43.0782 25.9283 42.5265 25.9643 39.6938L26.0065 36.3525L27.2778 36.3861C30.1889 36.4633 32.8085 35.0986 34.5003 32.6234C35.5782 31.0466 36.0755 28.9303 35.813 27.0363C35.5972 25.4789 35.3813 25.1075 34.5528 24.8682C34.1743 24.7588 33.8355 24.64 33.7995 24.604C33.7635 24.568 34.0152 24.1673 34.3587 23.7134C35.5368 22.1568 36.0861 19.9234 35.7988 17.8577C35.5958 16.3978 35.4418 16.09 34.7758 15.8117C33.9496 15.4664 31.9437 15.3692 30.7663 15.6171L29.7352 15.8344L29.8072 14.3395C29.8917 12.5844 29.6941 11.477 29.0557 10.1269C28.2794 8.48526 26.0043 6.35093 25.0308 6.35093C24.7834 6.35093 24.2678 6.55017 23.8852 6.79385ZM25.861 9.07218C27.0612 10.1066 27.9629 12.1701 27.9629 13.8824C27.9629 14.7781 27.5157 16.2695 26.9662 17.2073C26.5703 17.8831 25.2476 19.1848 24.957 19.1848C24.8774 19.1848 24.4262 18.7987 23.9543 18.3268C21.9732 16.3459 21.5181 13.5226 22.7574 10.9029C23.2181 9.92876 24.5082 8.54208 24.9535 8.54208C25.1144 8.54208 25.5227 8.7806 25.861 9.07218ZM19.5625 17.7668C21.2337 18.3418 22.6713 19.6238 23.3793 21.1705C23.8928 22.2922 24.1547 23.8369 23.9628 24.6135L23.8152 25.2105L22.2376 25.2026C20.8259 25.1957 20.5626 25.1474 19.7336 24.7433C18.5466 24.1648 17.3239 22.9138 16.6932 21.6326C16.3083 20.8507 16.1781 20.347 16.1122 19.385C15.9901 17.6055 16.0956 17.4632 17.536 17.4632C18.2605 17.4632 19.0033 17.5745 19.5625 17.7668ZM33.8458 18.0296C34.3105 20.5062 32.6726 23.5599 30.2448 24.7433C29.4158 25.1474 29.1525 25.1957 27.7408 25.2026L26.1632 25.2105L26.0156 24.6135C25.6935 23.3095 26.4519 20.9144 27.5838 19.6614C28.9365 18.164 30.4619 17.4776 32.4555 17.4688L33.7395 17.4632L33.8458 18.0296ZM20.2745 27.156C20.8235 27.4337 21.6164 27.9826 22.0366 28.3756C23.3582 29.6117 24.2347 31.9645 23.9875 33.6123C23.8813 34.3205 23.8755 34.3263 23.1626 34.4239C22.2543 34.5485 20.5903 34.2876 19.835 33.9023C17.5066 32.7144 16.0681 30.4545 16.0681 27.9845C16.0681 26.5677 16.1698 26.487 17.8453 26.5755C19.0588 26.6397 19.4284 26.728 20.2745 27.156ZM33.7483 26.8435C33.9826 27.2813 33.9472 28.6809 33.6755 29.7238C33.2245 31.4555 31.7433 33.1659 30.0335 33.9289C29.1431 34.3264 27.7416 34.5435 26.8349 34.4246C26.0992 34.328 26.0981 34.3267 25.991 33.6134C25.7353 31.9079 26.629 29.5802 28.0321 28.2979C29.4051 27.043 30.5729 26.5835 32.4571 26.5568C33.4229 26.5431 33.6096 26.5846 33.7483 26.8435ZM9.18678 40.8642C9.73301 41.1467 10.1207 41.8311 10.1207 42.5127C10.1207 43.2313 9.24798 44.07 8.50033 44.07C7.34309 44.07 6.67745 43.41 6.67745 42.2623C6.67745 41.8213 6.79874 41.5697 7.20958 41.1589C7.80902 40.5595 8.42113 40.4682 9.18678 40.8642ZM15.6353 46.4341C15.4405 46.5066 15.2081 46.7574 15.119 46.9917C14.7744 47.8982 15.9972 48.6797 16.6846 47.9923C17.4343 47.2426 16.6387 46.0611 15.6353 46.4341Z" fill="white"/>
</svg>
