<svg width="24" height="24" viewBox="0 0 24 24" fill="none" xmlns="http://www.w3.org/2000/svg">
<path d="M16.3748 3.24997C17.5342 3.25343 18.6451 3.71551 19.4648 4.53529C20.2846 5.35507 20.7467 6.46594 20.7502 7.62528V16.375C20.7467 17.5343 20.2846 18.6452 19.4648 19.465C18.6451 20.2847 17.5342 20.7468 16.3748 20.7503H7.62516C6.46582 20.7468 5.35495 20.2847 4.53517 19.465C3.71539 18.6452 3.25331 17.5343 3.24984 16.375V7.62528C3.25331 6.46594 3.71539 5.35507 4.53517 4.53529C5.35495 3.71551 6.46582 3.25343 7.62516 3.24997H16.3748ZM16.3748 1.50012H7.62516C4.25625 1.50012 1.5 4.25637 1.5 7.62528V16.375C1.5 19.7439 4.25625 22.5001 7.62516 22.5001H16.3748C19.7437 22.5001 22.5 19.7439 22.5 16.375V7.62528C22.5 4.25637 19.7437 1.50012 16.3748 1.50012Z" fill="white"/>
<path d="M17.6873 7.62525C17.4277 7.62525 17.174 7.54827 16.9581 7.40405C16.7423 7.25983 16.5741 7.05485 16.4747 6.81502C16.3754 6.57519 16.3494 6.31129 16.4001 6.05669C16.4507 5.80209 16.5757 5.56822 16.7593 5.38467C16.9428 5.20111 17.1767 5.07611 17.4313 5.02546C17.6859 4.97482 17.9498 5.00081 18.1896 5.10015C18.4294 5.19949 18.6344 5.36772 18.7786 5.58356C18.9229 5.7994 18.9998 6.05316 18.9998 6.31275C19.0002 6.48521 18.9665 6.65605 18.9007 6.81546C18.8348 6.97486 18.7382 7.1197 18.6162 7.24165C18.4943 7.3636 18.3494 7.46027 18.19 7.52609C18.0306 7.59192 17.8598 7.62562 17.6873 7.62525ZM12 8.49993C12.6923 8.49993 13.369 8.70522 13.9446 9.08982C14.5202 9.47442 14.9688 10.0211 15.2337 10.6606C15.4986 11.3002 15.5679 12.004 15.4329 12.6829C15.2978 13.3619 14.9645 13.9856 14.475 14.4751C13.9855 14.9646 13.3618 15.2979 12.6828 15.433C12.0039 15.5681 11.3001 15.4987 10.6605 15.2338C10.021 14.9689 9.47433 14.5203 9.08973 13.9447C8.70512 13.3691 8.49984 12.6924 8.49984 12.0001C8.50084 11.0721 8.86992 10.1824 9.52611 9.5262C10.1823 8.87001 11.072 8.50093 12 8.49993ZM12 6.75009C10.9616 6.75009 9.94661 7.058 9.08326 7.63487C8.2199 8.21175 7.54699 9.03169 7.14963 9.991C6.75227 10.9503 6.64831 12.0059 6.85088 13.0243C7.05345 14.0427 7.55347 14.9782 8.28769 15.7124C9.02191 16.4466 9.95737 16.9466 10.9758 17.1492C11.9942 17.3518 13.0498 17.2478 14.0091 16.8505C14.9684 16.4531 15.7883 15.7802 16.3652 14.9168C16.9421 14.0535 17.25 13.0384 17.25 12.0001C17.25 10.6077 16.6969 9.27235 15.7123 8.28778C14.7277 7.30321 13.3924 6.75009 12 6.75009Z" fill="white"/>
</svg>
