<svg width="69" height="50" viewBox="0 0 69 50" fill="none" xmlns="http://www.w3.org/2000/svg">
<path fill-rule="evenodd" clip-rule="evenodd" d="M28.0979 0.373964C25.6504 1.12524 23.1105 3.48518 22.0662 5.9786C21.5097 7.3071 21.4755 7.57468 21.4761 10.5921C21.4766 13.3561 21.5415 13.9776 21.9498 15.1233C22.2817 16.055 22.4239 16.9472 22.4264 18.113C22.4341 21.4937 23.4707 24.3978 25.5411 26.8384L26.6938 28.1973V29.8687V31.5402L25.8221 32.3843C25.3425 32.8486 24.8225 33.4688 24.6662 33.7624C24.4545 34.1602 23.9288 34.4517 22.6018 34.9072C21.6224 35.2432 19.9851 35.8513 18.9635 36.2586C17.6408 36.7858 17.0038 36.942 16.7513 36.8006C16.4517 36.6332 16.5248 36.526 17.2209 36.1106C17.6741 35.8402 18.5014 35.181 19.0594 34.6454C20.1876 33.5623 20.2621 33.224 19.7466 31.5244C19.5629 30.919 19.3421 28.8949 19.2343 26.8263C18.9917 22.1813 18.5646 20.7832 16.8039 18.873C15.6112 17.5791 14.4209 16.792 13.0351 16.3804C8.79999 15.1226 4.5892 17.2605 2.78385 21.5847C2.38515 22.5399 2.25851 23.4005 2.09301 26.2828C1.98132 28.2237 1.7477 30.3883 1.57366 31.093C1.39961 31.7977 1.20336 32.5906 1.13759 32.8552C0.963541 33.5542 1.9416 34.7236 3.56758 35.7602L4.93217 36.63L3.37367 37.4143C2.51648 37.8455 1.55999 38.4537 1.24799 38.7657C0.093322 39.9201 0 40.3961 0 45.1235C0 48.227 0.0736743 49.5534 0.25626 49.736C0.591321 50.071 1.38295 50.0642 1.66527 49.7238C1.79746 49.5647 1.91662 47.7574 1.95826 45.2826C2.04325 40.2441 1.99691 40.3511 4.67932 39.0038C6.51778 38.0806 6.58227 38.0648 6.93463 38.4541C8.8931 40.6182 11.7165 40.807 13.7732 38.9111C14.3474 38.3817 14.8527 38.0759 15.0073 38.1641C15.7282 38.5756 15.7645 38.6854 15.4083 39.3771C15.1198 39.937 15.0434 40.8899 14.9902 44.5922C14.9212 49.3969 15.018 49.9948 15.8636 49.989C16.9531 49.9813 16.9698 49.91 17.0841 44.8218C17.2233 38.6145 16.9166 39.0599 22.3931 37.1107L25.6408 35.9547L27.0214 38.0287C28.5276 40.2909 28.894 40.687 29.653 40.8721C30.3876 41.0515 31.1658 40.6878 32.1928 39.685L33.1003 38.7988V43.9825C33.1003 47.1473 33.1864 49.327 33.3214 49.5792C33.6197 50.1364 34.7165 50.1364 35.0148 49.5792C35.1498 49.327 35.2359 47.152 35.2359 43.9977V38.8291L36.2944 39.8193C37.2883 40.7489 37.7186 40.9225 38.7594 40.8143C39.4007 40.7476 39.8466 40.2633 41.3603 37.9909C42.7005 35.9786 42.7558 35.9261 43.3121 36.1439C43.6271 36.2673 45.0831 36.7963 46.5481 37.3193C48.0128 37.8425 49.5023 38.452 49.8581 38.6738C51.0901 39.4418 51.136 39.6442 51.2522 44.8218C51.366 49.8966 51.3856 49.9813 52.454 49.989C53.3631 49.9954 53.4212 49.6469 53.349 44.6138L53.2809 39.8486L52.6748 38.8174C52.0156 37.696 52.016 37.7197 52.6473 37.5264C52.9821 37.4239 53.3584 37.6742 54.2925 38.6211L55.5035 39.8486L55.5667 44.715C55.6342 49.9025 55.6511 49.9811 56.7084 49.989C57.6078 49.9957 57.6587 49.7101 57.6587 44.6575V39.8351L58.8934 38.6132L60.1284 37.3913L62.5293 38.0597C63.8497 38.4272 65.1648 38.9124 65.4513 39.1379C66.253 39.7685 66.4117 40.7863 66.413 45.3048C66.4142 49.6858 66.4772 49.9922 67.3752 49.9922C68.2869 49.9922 68.3362 49.7189 68.3362 44.6782C68.3362 40.2738 68.2999 39.8018 67.8984 38.9722C67.2909 37.7174 66.404 37.1168 64.1705 36.4484C60.5613 35.3681 60.8619 35.5321 60.8619 34.6433C60.8619 33.9939 61.021 33.6951 61.7349 33.0049C62.215 32.5407 62.9018 31.5842 63.2612 30.8795C63.8153 29.7927 63.9302 29.29 64.0178 27.5694C64.0942 26.066 64.2377 25.3195 64.5717 24.6865C64.9674 23.9363 65.0313 23.396 65.0958 20.2457C65.1487 17.6628 65.0971 16.5722 64.9115 16.3484C64.6977 16.0909 63.6906 16.0377 59.0286 16.0377C53.9455 16.0377 53.295 16.0785 52.2746 16.4605C50.664 17.0634 49.6676 17.9761 48.886 19.5636C48.0406 21.281 47.9549 23.0451 48.6372 24.6865C48.8832 25.2789 49.1346 26.4825 49.2012 27.3896C49.3661 29.6313 50.0185 31.2634 51.2855 32.603C52.1775 33.5463 52.3199 33.8179 52.3199 34.5752V35.4537L50.9645 35.8723L49.6091 36.2908L46.7909 35.2812C44.4474 34.4417 43.9067 34.1658 43.581 33.6432C43.3657 33.2977 42.8415 32.6838 42.4159 32.2791C41.6511 31.5515 41.6424 31.5233 41.6424 29.8143V28.0854L42.616 27.1334C44.7154 25.0803 45.6956 22.5884 45.8461 18.9206C45.9245 17.0096 46.0667 16.0595 46.4058 15.1835C46.8276 14.0933 46.8658 13.5287 46.9369 7.32354C46.994 2.3461 46.948 0.559326 46.7576 0.329759C46.3708 -0.136208 29.631 -0.0964879 28.0979 0.373964ZM44.8042 8.08293C44.7446 13.6822 44.7026 14.2883 44.3254 14.9699C43.9972 15.5638 43.884 16.3317 43.7747 18.7071C43.6493 21.432 43.5799 21.8198 42.9907 23.0849C41.0397 27.2749 36.596 29.5302 32.2163 28.5535C30.3338 28.1336 28.8684 27.3307 27.4867 25.9616C25.4569 23.9508 24.5583 21.6498 24.5583 18.463C24.5583 16.7911 24.452 16.0821 24.0089 14.798C23.5042 13.3361 23.4649 12.9679 23.5284 10.2975C23.5926 7.58536 23.6386 7.30966 24.2066 6.21436C24.9448 4.79105 25.8541 3.7959 27.0752 3.07495C28.8644 2.01852 29.2823 1.97282 37.3299 1.95766L44.8698 1.94335L44.8042 8.08293ZM28.7873 9.21347C27.1878 9.3999 26.2037 9.87825 25.8578 10.6374C25.7303 10.9172 25.6261 11.7994 25.6261 12.5978C25.6261 13.7331 25.7113 14.1266 26.0167 14.403C26.9717 15.2674 27.7616 14.4461 27.7616 12.5886V11.3703L28.9451 11.2223C29.596 11.1412 31.5901 11.1192 33.3763 11.1736C37.0876 11.2868 38.6565 11.69 40.4177 12.9826C41.5345 13.8027 42.3552 13.83 42.601 13.0555C42.803 12.4186 42.3687 11.8158 41.1482 11.0398C38.4103 9.29867 33.8431 8.62385 28.7873 9.21347ZM13.1707 18.5941C15.4303 19.5922 16.872 21.8505 17.0407 24.6562L17.1417 26.3345L16.1694 25.3622C14.5189 23.7116 11.3872 22.4592 8.88328 22.4478C8.15849 22.4446 7.90095 22.5931 6.90794 23.5863C5.66699 24.8272 5.42162 25.6618 6.17887 26.0671C6.8285 26.4148 7.00083 26.3486 8.08225 25.3372L9.09875 24.386L10.5622 24.6923C12.3353 25.0632 13.5049 25.6402 14.5923 26.68C16.1222 28.1428 16.2264 28.8324 15.183 30.5882C14.4121 31.8853 12.3052 33.0903 10.7698 33.1123C9.74218 33.1271 7.98679 32.5255 7.2509 31.9062C6.25084 31.0646 5.54741 29.8121 5.33215 28.4898C5.12586 27.2224 4.83692 26.7152 4.32098 26.7152C4.04465 26.7152 4.01774 26.4515 4.14096 24.9534C4.57191 19.7118 8.8615 16.6907 13.1707 18.5941ZM63.0799 20.6683C63.0596 22.8115 62.9808 23.4137 62.6327 24.0851C62.3408 24.6481 62.1646 25.5576 62.0625 27.0272C61.8898 29.5155 61.424 30.6546 60.1256 31.7659C59.3103 32.464 57.6471 33.1217 56.6977 33.1217C55.7645 33.1217 53.9984 32.4418 53.2698 31.802C51.9099 30.608 51.3961 29.4506 51.3051 27.3755C51.2453 26.0101 51.0854 25.2197 50.6803 24.2857C49.7481 22.1358 50.2645 20.0328 52.0201 18.8299C53.1414 18.0613 53.7159 17.9906 58.5129 18.0293L63.1042 18.0664L63.0799 20.6683ZM52.8004 21.6101C52.6537 21.7634 52.5335 22.0983 52.5335 22.3541C52.5335 23.0671 52.8856 23.2087 55.3472 23.484C56.6012 23.6243 58.1191 23.8853 58.7204 24.0638C59.9351 24.4245 60.5647 24.3254 60.7492 23.7447C60.9437 23.1312 60.6823 22.737 59.835 22.3671C58.0533 21.5894 53.3089 21.0788 52.8004 21.6101ZM31.9939 30.5722C33.8796 30.9382 36.6013 30.7146 38.2198 30.0609L39.5069 29.5409V30.4632V31.3856L36.9977 33.1149C35.3945 34.22 34.3342 34.8154 34.0613 34.7642C33.8264 34.7202 32.5532 33.9362 31.2318 33.0224L28.8293 31.361V30.4383V29.5153L29.7369 29.9127C30.2362 30.1314 31.2519 30.428 31.9939 30.5722ZM5.53459 33.0049C6.35463 33.7989 6.72065 34.8301 6.18229 34.8301C5.8846 34.8301 4.73314 34.2281 4.01454 33.6968C3.12852 33.0419 3.1219 32.9669 3.77344 30.9862C3.84605 30.7654 4.00044 30.8983 4.27059 31.4133C4.48627 31.8244 5.05496 32.5407 5.53459 33.0049ZM17.8419 32.1163C17.9961 33.0282 17.7192 33.4737 16.5643 34.172C14.6325 35.3401 14.3179 34.5248 16.0063 32.7265C16.588 32.1067 17.127 31.4009 17.2041 31.1581C17.3862 30.5839 17.65 30.98 17.8419 32.1163ZM30.4196 34.8624C31.5335 35.6081 32.4482 36.2752 32.4522 36.3451C32.4563 36.4149 31.9252 37.024 31.2719 37.6986L30.0839 38.925L29.083 37.4609C26.8655 34.2177 26.9251 34.3405 27.3099 33.8111C27.5051 33.5422 27.8152 33.3733 28.0245 33.4216C28.228 33.4683 29.3056 34.1169 30.4196 34.8624ZM41.1279 33.8707C41.384 34.257 41.2608 34.5271 39.8851 36.6001L38.3582 38.9008L37.1177 37.6734C36.1308 36.6968 35.9318 36.3925 36.1439 36.1838C36.7824 35.5558 40.2816 33.3319 40.5492 33.3842C40.7113 33.416 40.9718 33.6349 41.1279 33.8707ZM12.8797 35.8979C13.0007 36.9545 12.7372 37.4137 11.703 37.9484C10.7354 38.449 9.89893 38.3219 9.05263 37.5465C8.33189 36.8858 8.29644 36.7914 8.43162 35.8915L8.57491 34.9369H10.6722H12.7697L12.8797 35.8979ZM58.9011 35.3288C58.9731 35.6931 57.1188 37.8199 56.7293 37.8199C56.3148 37.8199 54.4554 35.8182 54.4554 35.3721C54.4554 34.9611 54.5763 34.9382 56.6443 34.9615C58.471 34.982 58.8445 35.0426 58.9011 35.3288ZM62.5169 41.8944C62.183 42.0889 62.1432 42.5197 62.1432 45.9414V49.7706L62.7102 49.9128C63.873 50.2047 63.9531 49.9643 64.0167 45.9854C64.0665 42.8855 64.0246 42.2942 63.7346 42.0044C63.3436 41.6134 63.0457 41.5865 62.5169 41.8944ZM4.85849 43.0922C4.32461 43.2319 4.24688 43.7741 4.31629 46.8729C4.38355 49.8867 4.5151 50.1917 5.62599 49.9128L6.19297 49.7706V46.5788C6.19297 43.6419 6.16008 43.3696 5.77996 43.1661C5.55274 43.0446 5.33642 42.9562 5.29947 42.9698C5.26232 42.9835 5.06393 43.0386 4.85849 43.0922ZM21.7085 44.1899C21.4257 44.5021 21.3551 45.0394 21.3551 46.8731C21.3551 49.497 21.5246 49.9922 22.4228 49.9922C23.3163 49.9922 23.4906 49.4968 23.4906 46.9573C23.4906 45.3037 23.4071 44.6291 23.1581 44.274C22.7545 43.6976 22.1839 43.6645 21.7085 44.1899ZM45.3669 44.1023C44.9962 44.3735 44.9524 44.678 44.9524 46.9931C44.9524 49.7364 45.0406 49.9816 46.0308 49.989C46.8562 49.9952 46.9811 49.5987 46.9811 46.975C46.9811 44.9828 46.9124 44.4017 46.6456 44.1348C46.2303 43.7196 45.9019 43.7111 45.3669 44.1023Z" fill="#12A028"/>
</svg>
