<svg width="24" height="24" viewBox="0 0 24 24" fill="none" xmlns="http://www.w3.org/2000/svg">
<path fill-rule="evenodd" clip-rule="evenodd" d="M19.4405 4.55173C18.4697 3.58052 17.3165 2.8109 16.0471 2.28718C14.7777 1.76346 13.4172 1.49599 12.0441 1.50017C6.28125 1.50017 1.59 6.16798 1.58766 11.9064C1.58511 13.7337 2.06676 15.529 2.98359 17.1096L1.5 22.5002L7.04297 21.0531C8.57729 21.8844 10.2948 22.3194 12.0398 22.3188H12.0441C17.8064 22.3188 22.4972 17.6505 22.5 11.9125C22.5035 10.544 22.2348 9.18851 21.7095 7.92483C21.1843 6.66115 20.413 5.51455 19.4405 4.55173ZM12.0441 20.5624H12.0403C10.4847 20.5628 8.95739 20.1465 7.61719 19.3567L7.29984 19.1692L4.01062 20.028L4.88859 16.8363L4.68187 16.5081C3.81206 15.131 3.35121 13.5352 3.35297 11.9064C3.35297 7.13783 7.25344 3.25798 12.0473 3.25798C14.347 3.25388 16.5542 4.16339 18.1833 5.78648C19.8125 7.40957 20.7302 9.6133 20.7347 11.913C20.7328 16.6821 16.8342 20.5624 12.0441 20.5624ZM16.8108 14.0847C16.5497 13.9544 15.2639 13.3253 15.0258 13.2386C14.7877 13.1519 14.6119 13.1083 14.438 13.3689C14.2641 13.6295 13.763 14.2127 13.6106 14.3885C13.4583 14.5642 13.3059 14.5835 13.0448 14.4531C12.7838 14.3228 11.9414 14.0486 10.9434 13.1627C10.1667 12.4731 9.64266 11.6219 9.49031 11.3617C9.33797 11.1016 9.47391 10.9605 9.60469 10.8311C9.72234 10.7144 9.86578 10.5274 9.99656 10.3755C10.1273 10.2236 10.1709 10.1149 10.2577 9.94142C10.3444 9.76799 10.3012 9.61611 10.2361 9.48627C10.1709 9.35642 9.64828 8.07627 9.43078 7.55548C9.21844 7.0483 9.00328 7.1172 8.84297 7.10924C8.69062 7.10174 8.51484 7.09986 8.34188 7.09986C8.20965 7.1033 8.07955 7.13397 7.9597 7.18994C7.83985 7.24591 7.73283 7.32599 7.64531 7.42517C7.40578 7.6858 6.73078 8.3158 6.73078 9.59455C6.73078 10.8733 7.66828 12.1108 7.79766 12.2842C7.92703 12.4577 9.63984 15.0841 12.2606 16.2105C12.7473 16.4189 13.2445 16.6016 13.7503 16.758C14.3761 16.9558 14.9456 16.9281 15.3956 16.8611C15.8977 16.7866 16.9425 16.2321 17.1595 15.6246C17.3766 15.0171 17.377 14.4967 17.3119 14.3885C17.2467 14.2802 17.0723 14.2146 16.8108 14.0847Z" fill="white"/>
</svg>
