<?xml version="1.0" encoding="utf-8"?><svg xmlns="http://www.w3.org/2000/svg" xmlns:xlink="http://www.w3.org/1999/xlink"><symbol viewBox="0 0 50 50" id="forum-img0" xmlns="http://www.w3.org/2000/svg"><path clip-rule="evenodd" d="M24.477.286c-.22.244-.258.706-.258 3.18v2.895l-.977.093c-1.254.119-3.778.938-4.84 1.57-.63.377-.837.593-.874.92-.039.333.04.469.348.61.343.156.522.115 1.3-.296.496-.262 1.5-.673 2.23-.914 1.207-.397 1.535-.437 3.594-.438 2.136 0 2.351.028 3.75.499 2.386.802 4.136 1.997 5.71 3.899 1.44 1.74 2.73 4.834 2.73 6.55v.521H27.667l-.996-.547c-1.328-.73-2.017-.73-3.323 0l-.978.547h-9.56v-.508c.003-.864.596-3.037 1.11-4.062.562-1.121 1.637-2.677 2.233-3.23.547-.51.553-1.203.011-1.45-.361-.164-.457-.12-1.108.512-1.92 1.862-3.278 4.776-3.725 7.997-.084.603-.186.786-.54.968-.657.34-1.391 1.26-1.51 1.89-.057.31-.063.87-.012 1.244l.094.68-3.63.05-3.628.05-.727.427c-1.192.7-1.698 2.188-1.172 3.447.25.598 1.198 1.472 1.745 1.61l.388.096v10.207c0 9.07.028 10.233.246 10.452.22.22 2.47.245 22.414.245 19.945 0 22.193-.025 22.414-.245.218-.219.246-1.382.246-10.452V29.096l.388-.097c.547-.137 1.495-1.01 1.745-1.609.526-1.259.02-2.746-1.172-3.447l-.727-.427-3.62-.05-3.622-.05.085-.826c.048-.463.005-1.072-.099-1.385-.165-.5-.925-1.324-1.616-1.752-.168-.104-.334-.644-.498-1.615-.288-1.713-.89-3.346-1.812-4.914-.907-1.544-3.293-3.888-4.836-4.752-1.463-.82-3.75-1.592-5.081-1.716l-1.014-.095V5.313h2.548c1.772 0 2.604-.058 2.734-.188.238-.237.26-4.386.026-4.823C30.938.02 30.732 0 27.832 0c-2.801 0-3.12.027-3.355.286zm5.296 1.48c.05.198.068.743.042 1.211l-.049.851-1.992.044-1.993.044v-1.15c0-.634.047-1.198.105-1.256.057-.057.935-.104 1.95-.104 1.797 0 1.849.01 1.937.36zm-1.526 19.668l6.52 3.69c1.891 1.07 3.632 2.082 3.868 2.25.515.364.563.93.117 1.376-.308.308-.52.313-13.752.313-13.231 0-13.444-.005-13.752-.313-.446-.446-.398-1.012.117-1.377.236-.167 2.082-1.239 4.102-2.382 2.02-1.143 4.938-2.8 6.486-3.682 1.547-.882 2.902-1.608 3.012-1.613.11-.005 1.587.777 3.282 1.738zm-8.72-.536c0 .065-.965.663-2.142 1.329l-2.14 1.21h-1.92c-1.704 0-1.956-.034-2.23-.308-.657-.657-.502-1.735.31-2.146.432-.219 8.128-.3 8.123-.085zm19.069.085c.81.41.966 1.489.309 2.146-.275.274-.526.308-2.234.308h-1.924l-2.133-1.21c-1.173-.666-2.136-1.264-2.139-1.329-.01-.214 7.688-.134 8.12.085zm-26.41 4.182c-.13.088-.558.328-.952.534-.767.4-1.705 1.351-1.705 1.728 0 .195-.54.23-3.573.23-3.379 0-3.596-.018-3.985-.325-.333-.26-.412-.455-.412-1.004 0-.549.08-.743.412-1.004.397-.313.588-.324 5.43-.322 3.476.002 4.947.052 4.784.163zm35.843.159c.332.261.412.455.412 1.004 0 .55-.08.743-.412 1.004-.389.307-.606.324-3.985.324-3.034 0-3.573-.034-3.573-.229 0-.377-.938-1.328-1.705-1.728a13.942 13.942 0 01-.951-.534c-.163-.11 1.308-.16 4.784-.163 4.842-.002 5.033.01 5.43.322zm-38.013 4.282c.272.298.625.585.785.635.278.088.29.421.29 7.738 0 6.39-.035 7.646-.215 7.646-.422 0-.644.526-.722 1.703l-.078 1.188H3.98l-.047-.899-.047-.898h1.458c1.066 0 1.551-.066 1.805-.244l.347-.243V38.93c0-5.473-.047-7.351-.187-7.492-.122-.121-.754-.187-1.797-.187h-1.61V29.063h5.618l.495.543zm36.081.55v1.094h-1.61c-1.043 0-1.675.066-1.797.188-.14.14-.187 2.018-.187 7.49v7.304l.347.243c.254.178.739.244 1.805.244h1.458l-.047.898-.047.899H39.924l-.078-1.188c-.077-1.177-.3-1.703-.722-1.703-.173 0-.216-.443-.216-2.247 0-2.46-.07-2.663-.889-2.569l-.439.05-.078 2.344-.078 2.344-.82.047-.821.047-.001-5.594c0-3.366-.065-5.825-.162-6.175-.686-2.47-4.213-2.904-5.44-.67-.222.405-.268 1.286-.335 6.407l-.079 5.938-.893.047-.893.046-.045-5.984-.044-5.984-.382-.565c-.653-.964-1.315-1.31-2.509-1.31s-1.856.346-2.509 1.31l-.382.565-.044 5.984-.045 5.984-.893-.046-.893-.047-.079-5.938c-.067-5.121-.113-6.002-.335-6.406-1.227-2.235-4.754-1.801-5.44.669-.097.35-.162 2.81-.162 6.175v5.594l-.821-.047-.82-.047-.044-7.188c-.024-3.953-.005-7.346.042-7.54l.086-.352 12.381.04 12.382.04.041 4.128c.028 2.726.1 4.198.215 4.336.232.28.682.262.983-.038.21-.21.245-.835.245-4.442 0-3.955.017-4.203.291-4.29.16-.05.513-.337.785-.635l.495-.544h5.618v1.094zm-40.044 8.79l.041 6.21H3.903V32.642l1.055.046 1.055.046.04 6.211zm40.044-.04v6.25h-2.188v-6.145c0-3.38.047-6.193.104-6.25.058-.058.55-.105 1.094-.105h.99v6.25zm-27.778-5.154l.43.472v11.401H15.78v-5.713c0-3.604.06-5.824.16-6.013.242-.452.949-.785 1.48-.696.259.042.663.29.9.549zm7.775-.073l.39.39V45.547H23.516V39.82c0-5.506.012-5.74.313-6.073.653-.725 1.58-.754 2.266-.069zm7.348-.318c.25.13.529.371.617.537.102.19.161 2.394.161 6.014v5.713H31.251v-5.682c0-5.568.007-5.69.334-6.107.552-.701 1.132-.85 1.857-.475zm4.81 14.412l-.047.743h-26.41l-.048-.743-.047-.742h26.6l-.047.742z"/></symbol><symbol viewBox="0 0 50 50" id="forum-img1" xmlns="http://www.w3.org/2000/svg"><path clip-rule="evenodd" d="M22.328.032C11.197 1.444 2.688 9.27.396 20.202c-.524 2.5-.529 6.913-.01 9.39.74 3.533 2.065 6.73 3.926 9.47l.903 1.33-.282.626c-.61 1.352-.297 2.752.873 3.923.868.868 1.546 1.162 2.671 1.161.766 0 2.044-.583 2.614-1.19 1.291-1.379 1.233-3.771-.126-5.13-.93-.931-2.688-1.34-3.848-.896-.392.15-.457.11-.945-.575-2.046-2.876-3.446-6.381-3.971-9.946-.312-2.117-.223-6.265.173-8.061 2.001-9.075 8.858-15.932 17.943-17.945 1.75-.387 6.228-.481 8.247-.172 1.135.173 1.707.2 1.915.088.565-.302.579-1.409.021-1.642-.872-.364-2.43-.56-4.885-.612-1.506-.032-2.985-.027-3.287.011zm10.964 2.006c-.444.473-.344 1.058.247 1.445.365.239.45.243.818.037.225-.127.477-.421.559-.654.123-.351.086-.49-.221-.817-.467-.497-.943-.5-1.403-.01zm6.8 2.182c-1.398.661-2.132 1.79-2.146 3.302-.013 1.48.843 2.798 2.215 3.411.754.337 2.006.399 2.7.133.392-.15.457-.11.945.574 2.047 2.876 3.446 6.382 3.972 9.946.312 2.118.223 6.266-.173 8.062C45.602 38.72 38.723 45.6 29.66 47.59c-1.598.35-5.671.483-7.558.245-1.335-.168-1.558-.16-1.896.06-.382.25-.515.9-.263 1.277.398.596 2.898.927 6.06.802 10.413-.413 19.358-7.138 22.74-17.094.921-2.715 1.199-4.519 1.204-7.826.004-2.514-.051-3.24-.356-4.695-.74-3.532-2.065-6.729-3.926-9.47l-.903-1.33.282-.626c.61-1.352.298-2.752-.873-3.923-1.226-1.226-2.596-1.491-4.08-.79zm2.404 1.884c.516.267.805.842.805 1.6 0 .748-.839 1.62-1.557 1.62a1.86 1.86 0 01-1.886-1.885c0-.727.872-1.558 1.635-1.558.314 0 .765.1 1.003.223zm-18.61.69c-1.021.65-2.482 2.308-2.99 3.394-.594 1.27-.808 2.524-.721 4.23l.072 1.417-1.033-.217c-1.255-.265-3.289-.141-4.085.247-.739.361-.973 1.098-.98 3.085-.005 1.245.067 1.774.354 2.582.354 1.002 1.22 2.526 1.552 2.731.332.206.159.384-.574.591-.89.251-1.095.593-1.316 2.182-.559 4.035 2.205 8.08 6.23 9.117.529.136 1.567.248 2.308.248h1.347v3.34c0 3.038.026 3.365.286 3.6.377.341 1.01.33 1.33-.023.217-.24.262-.791.298-3.624l.043-3.342 1.27.034c2.912.077 5.532-1.287 7.223-3.763 1.078-1.576 1.575-3.693 1.313-5.587-.216-1.557-.432-1.928-1.26-2.168-.379-.11-.717-.228-.753-.264-.036-.036.215-.437.559-.89 1.178-1.557 1.727-3.79 1.44-5.856-.203-1.46-.357-1.768-1.023-2.046-.826-.346-2.832-.443-4.01-.195l-1.03.217.071-1.495c.085-1.755-.113-2.862-.751-4.212-.777-1.642-3.052-3.776-4.025-3.776-.248 0-.763.2-1.146.443zm1.975 2.278c1.2 1.035 2.102 3.098 2.102 4.81 0 .896-.447 2.388-.997 3.325-.396.676-1.718 1.978-2.009 1.978-.08 0-.53-.386-1.003-.858-1.98-1.981-2.436-4.804-1.197-7.424.461-.974 1.751-2.36 2.196-2.36.161 0 .57.238.908.53zm-6.299 8.695c1.672.575 3.11 1.857 3.817 3.404.514 1.121.776 2.666.584 3.442l-.148.598-1.577-.008c-1.412-.007-1.675-.056-2.504-.46-1.187-.578-2.41-1.83-3.04-3.11-.386-.782-.516-1.286-.582-2.248-.122-1.78-.016-1.922 1.424-1.922.724 0 1.467.111 2.026.304zm14.284.263c.465 2.476-1.173 5.53-3.601 6.713-.83.404-1.093.453-2.504.46l-1.578.008-.147-.598c-.322-1.303.436-3.699 1.568-4.952 1.352-1.497 2.878-2.183 4.872-2.192l1.283-.006.107.567zm-13.571 9.126c.549.278 1.341.827 1.762 1.22 1.321 1.236 2.198 3.588 1.95 5.236-.106.709-.111.714-.824.812-.909.124-2.573-.136-3.328-.522-2.328-1.188-3.767-3.448-3.767-5.918 0-1.416.102-1.497 1.777-1.409 1.214.065 1.583.153 2.43.581zm13.473-.313c.235.438.2 1.838-.072 2.88-.452 1.733-1.933 3.443-3.643 4.206-.89.397-2.291.614-3.198.496-.736-.097-.737-.098-.844-.812-.256-1.705.638-4.033 2.041-5.315 1.373-1.255 2.54-1.714 4.425-1.741.966-.014 1.153.028 1.291.287zM9.187 40.864c.546.283.934.967.934 1.649 0 .718-.873 1.557-1.62 1.557-1.158 0-1.824-.66-1.824-1.808 0-.44.122-.692.533-1.103.599-.6 1.211-.69 1.977-.295zm6.448 5.57c-.194.073-.427.323-.516.558-.345.906.878 1.688 1.566 1 .75-.75-.046-1.93-1.05-1.558z"/></symbol><symbol viewBox="0 0 50 50" id="forum-img2" xmlns="http://www.w3.org/2000/svg"><path clip-rule="evenodd" d="M8.1.229c-.436.236-.92 1.087-.92 1.615 0 .587-.293 1.12-.616 1.12-.17 0-.643-.212-1.05-.47-1.218-.772-2.462-.513-3.179.663-.45.739-.397 1.485.168 2.377.641 1.01.546 1.425-.362 1.573-.973.158-1.663.527-1.922 1.026-.292.566-.292 1.908 0 2.474.238.46 1.077.951 1.622.951.602 0 1.12.292 1.12.632 0 .18-.211.634-.469 1.009-.72 1.046-.66 1.77.224 2.704.625.662.761.734 1.394.734.54 0 .868-.118 1.43-.514.832-.587 1.275-.557 1.421.095.284 1.262.413 1.585.78 1.953.845.845 2.778.668 3.437-.315.184-.275.381-.847.438-1.272.136-1.024.526-1.152 1.463-.481 1.215.869 2.129.752 3.142-.401.665-.758.672-1.565.023-2.527-.768-1.137-.619-1.5.694-1.69.577-.083.902-.242 1.289-.629.482-.482.517-.587.517-1.564 0-.973-.036-1.083-.508-1.555-.377-.377-.709-.537-1.289-.624-1.315-.196-1.455-.52-.7-1.634.554-.818.605-1.583.154-2.322-.724-1.187-2.137-1.474-3.258-.663-1.076.78-1.47.616-1.66-.693-.083-.578-.242-.903-.629-1.29-.47-.47-.6-.516-1.431-.51-.503.003-1.099.106-1.324.228zm1.745 2.226c.22 1.056.896 1.81 1.858 2.069.693.186 1.161.055 1.949-.545.61-.466.744-.48 1.08-.108.24.265.22.338-.288 1.128-.614.953-.647 1.201-.295 2.234.326.957.79 1.3 1.934 1.434.721.083.952.175 1.025.405.192.607-.053.89-.867 1.002-.915.126-1.456.51-1.877 1.336-.437.857-.385 1.367.236 2.332.51.79.528.863.289 1.127-.344.38-.405.368-1.323-.264-.867-.596-1.073-.637-1.87-.367-1.185.403-1.521.85-1.777 2.369-.093.557-.132.592-.593.547-.467-.046-.504-.097-.674-.95-.2-1.009-.497-1.415-1.348-1.85-.851-.434-1.383-.373-2.313.267-.8.55-.824.556-1.112.269-.287-.288-.282-.312.254-1.144.655-1.017.682-1.507.136-2.51-.453-.833-.54-.89-1.777-1.15-.839-.177-.86-.194-.86-.716 0-.525.015-.537.903-.715 1.064-.213 1.453-.52 1.864-1.472.37-.859.297-1.31-.37-2.255l-.507-.72.342-.342.342-.342.706.498c.895.631 1.364.747 1.998.494 1.2-.478 1.499-.883 1.749-2.373.087-.52.15-.586.549-.586.422 0 .462.055.637.898zM7.727 5.68c-.723.315-1.448.993-1.917 1.791-.362.617-.427.903-.427 1.898 0 1.004.063 1.28.44 1.921 2.147 3.653 7.834 1.863 7.404-2.33-.146-1.425-1.11-2.745-2.397-3.283-.646-.27-2.483-.268-3.103.003zm12.213.85c-.335.37-.327.697.024 1.015.257.233 1.518.26 13.584.298 13.158.041 13.306.045 13.733.364.237.177.577.516.754.754.318.425.323.59.364 12.218l.042 11.787H2.336v-7.555c0-7.12-.017-7.57-.286-7.813-.373-.338-.697-.328-1.022.031-.242.267-.26 1.184-.22 11.525.043 11.222.044 11.235.386 11.874.398.745 1.29 1.574 2.024 1.88.428.18 4.133.215 22.061.215 15.893 0 21.686-.047 22.078-.18.79-.27 1.653-1.007 2.135-1.827l.428-.727.043-15.393c.04-14.067.021-15.452-.217-16.08-.355-.937-1.23-1.866-2.17-2.304l-.782-.365-13.297-.002c-12.686-.001-13.31.012-13.557.285zm-9.175 1.052c1.023.924 1.208 2.169.475 3.198-.448.63-1.082.933-1.95.933-1.45 0-2.341-.893-2.336-2.34.005-1.483.878-2.346 2.374-2.347.721 0 .895.067 1.437.556zm13.255 2.5c-.519.282-.827.85-.971 1.787-.176 1.142-.23 1.234-.778 1.337-.433.081-.65.003-1.311-.472-1.384-.993-2.235-.863-3.375.518-.834 1.01-.774 1.744.245 2.99.502.613.546.884.218 1.352-.165.235-.47.354-1.103.428-1.548.182-2.108.831-2.108 2.442 0 .931.236 1.643.66 1.995.116.097.665.248 1.22.338 1.447.233 1.812.906 1.01 1.86-.56.665-.893 1.543-.78 2.056.12.552 1.059 1.654 1.68 1.976.676.35 1.371.188 2.325-.54.768-.585.835-.607 1.293-.415.427.18.504.311.652 1.116.318 1.732.853 2.24 2.361 2.24 1.628 0 2.228-.494 2.465-2.03.165-1.078.217-1.19.642-1.384.353-.16.502-.106 1.421.524 1.417.97 1.972.967 3.022-.015 1.278-1.196 1.352-2.028.298-3.34-.444-.553-.485-.682-.355-1.135.136-.478.212-.524 1.156-.71 1.766-.345 2.221-.908 2.147-2.653-.044-1.02-.095-1.18-.52-1.605-.371-.37-.69-.507-1.482-.632-1.57-.247-1.767-.762-.818-2.14.755-1.096.784-1.8.108-2.635-1.158-1.432-2.011-1.587-3.415-.62-.779.537-.933.588-1.38.46-.47-.135-.516-.211-.681-1.131-.189-1.055-.562-1.697-1.167-2.008-.517-.266-2.156-.237-2.679.047zm2.207 2.608c.208 1.182.523 1.647 1.427 2.11.977.498 1.54.453 2.442-.197 1.082-.78 1.131-.791 1.576-.347.444.445.433.494-.348 1.576-.655.909-.686 1.39-.163 2.493.462.972.712 1.145 1.95 1.344 1.174.19 1.26.242 1.258.765-.004.643-.156.767-1.158.952-.51.095-1.096.283-1.303.42-.386.252-1.131 1.721-1.131 2.228 0 .153.288.758.642 1.343l.641 1.064-.448.448-.448.449-.93-.66c-1.091-.774-1.649-.83-2.784-.284-.825.398-1.113.823-1.276 1.884-.191 1.244-.21 1.272-.836 1.22l-.568-.048-.255-1.128c-.293-1.297-.435-1.51-1.303-1.952-1.016-.518-1.606-.451-2.583.294-.465.355-.922.614-1.014.576-.092-.038-.294-.243-.45-.454-.278-.382-.275-.394.352-1.27.737-1.027.803-1.601.303-2.597-.501-.997-.722-1.175-1.68-1.36-1.677-.323-1.584-.273-1.584-.844 0-.659.195-.818 1.172-.96 1.191-.172 1.55-.424 2.022-1.422.523-1.105.461-1.54-.383-2.707l-.618-.854.418-.435c.23-.24.464-.436.522-.436.058 0 .414.246.791.546.867.69 1.468.807 2.452.48 1.034-.343 1.401-.776 1.608-1.895.25-1.349.229-1.319.902-1.319h.613l.172.977zm-1.71 3.47c-3.38.674-4.717 4.678-2.416 7.237 1.795 1.997 4.774 1.997 6.57 0 1.519-1.69 1.542-4.119.056-5.807-1.11-1.262-2.571-1.758-4.21-1.43zm2.586 2.026c.32.245.714.734.874 1.088 1.218 2.682-1.979 5.245-4.317 3.462a2.826 2.826 0 01-.872-3.444c.541-1.178 1.408-1.679 2.774-1.603.762.042 1.077.144 1.54.497zm21.303 19.31l-.05 2.81-.588.588-.588.588-21.615.041-21.615.04-.518-.352c-.967-.66-1.096-1.131-1.096-3.984v-2.542h46.119l-.05 2.81zM24.09 36.27c-.654.419-.997 1.083-.997 1.932 0 .874.353 1.527 1.06 1.964 1.107.684 2.709.282 3.28-.825.313-.603.313-1.675 0-2.279-.557-1.078-2.265-1.482-3.343-.792zm1.697 1.234c.342.183.411.916.114 1.213-.103.104-.335.188-.515.188-.449 0-.704-.292-.704-.805 0-.619.529-.904 1.105-.596zm-7.41 7.625c-.203.224-.258.61-.258 1.797v1.511h-1.538c-1.292 0-1.58.046-1.798.286-.324.359-.329.715-.013 1.032.219.218 1.396.245 10.602.245 9.835 0 10.37-.014 10.615-.286.325-.359.33-.715.014-1.031-.19-.19-.595-.246-1.797-.246h-1.552v-1.484c0-1.277-.044-1.529-.313-1.797-.358-.359-.822-.406-1.068-.109-.094.112-.19.904-.215 1.758l-.045 1.554-5.665.041-5.664.041v-1.54c0-1.294-.046-1.582-.286-1.8-.372-.335-.697-.327-1.018.028z"/></symbol><symbol viewBox="0 0 51 50" id="forum-img3" xmlns="http://www.w3.org/2000/svg"><path clip-rule="evenodd" d="M18.073.35c-2.87.982-4.935 3.206-5.587 6.015-.197.85-.239 1.788-.2 4.463.056 3.729.057 3.737 1.26 5.56.476.72.508.865.623 2.809.23 3.91 1.419 6.979 3.414 8.815.619.57.647.636.647 1.532 0 .515-.023.936-.05.936-.105 0-11.076 3.94-12.896 4.631-1.885.716-3.03 1.725-3.715 3.274C1.265 39.073 0 46.05 0 47.04c0 .715.604 1.806 1.311 2.368l.604.481 11.615.079c6.388.043 16.841.043 23.23 0l11.615-.079.603-.48c.708-.563 1.311-1.654 1.311-2.37 0-1.178-1.272-7.999-1.643-8.81-.46-1.003-1.636-2.216-2.602-2.683-.39-.19-2.866-1.119-5.5-2.066-2.636-.948-5.392-1.947-6.127-2.22a71.653 71.653 0 00-1.847-.665c-.5-.164-.51-.186-.51-1.103 0-.923.012-.949.91-1.909 1.622-1.734 2.588-4.055 3.083-7.41.253-1.716.561-2.65 1.47-4.452l.587-1.166v-3.627c0-3.055-.044-3.752-.276-4.414-.372-1.062-1.323-2.278-2.127-2.722-.53-.293-.662-.452-.662-.802 0-1.128-.713-2.193-1.807-2.7C32.657.021 32.1 0 25.852 0c-6.573 0-6.786.01-7.78.35zm14.365 1.434c.712.297.8.48.8 1.666V4.47l.881.42c1.064.508 1.931 1.471 2.167 2.41.194.768.206 6.01.017 6.757-.09.355-.125.192-.139-.662-.024-1.47-.462-2.634-1.37-3.644-.389-.432-1.074-.965-1.524-1.184-1.383-.674-5.338-1.974-6.004-1.973-.345 0-1.335.26-2.2.575-1.513.553-1.67.578-4.243.667-2.458.084-2.743.125-3.56.508-1.697.796-2.842 2.418-3.115 4.41-.096.705-.127-.049-.109-2.629l.026-3.617.55-1.076c.996-1.947 2.761-3.269 4.95-3.708.346-.07 3.266-.134 6.488-.144 4.693-.014 5.964.027 6.385.203zm-2.441 7.38c2.881 1.023 3.46 1.38 4.008 2.478.41.823.412.847.41 4.529-.002 3.012-.057 3.965-.298 5.116-.617 2.95-1.564 4.612-3.436 6.028l-2.058 1.554c-1.123.848-2.697 1.362-3.87 1.264-1.074-.088-2.405-.741-4.322-2.12-1.892-1.36-2.497-1.986-3.189-3.306-1.08-2.059-1.249-3.05-1.327-7.802-.06-3.692-.036-4.311.195-4.917.372-.974.957-1.608 1.878-2.037.716-.334 1.017-.37 3.15-.379 2.337-.01 2.37-.015 4.007-.618.907-.335 1.836-.614 2.064-.62.228-.007 1.483.367 2.788.83zM21.203 30.64c1.485.882 2.632 1.254 3.87 1.254 1.267 0 2.985-.543 4.219-1.331.997-.639 1.04-.65 1.038-.28-.001.376-4.963 3.712-5.32 3.577-.142-.054-1.337-.819-2.655-1.7-1.566-1.047-2.396-1.697-2.396-1.877 0-.151.04-.275.09-.275.05 0 .569.284 1.154.632zm-.317 2.626c1.003.669 2.088 1.403 2.411 1.633l.589.417-.911 1.236c-.501.68-1.15 1.571-1.44 1.982-.291.41-.606.745-.7.743-.175-.004-3.627-6.181-3.627-6.492 0-.173 1.208-.709 1.635-.726.121-.004 1.04.539 2.043 1.207zm11.73-.83c.314.132.547.306.518.387-.262.727-3.553 6.447-3.693 6.417-.1-.021-.827-.915-1.614-1.986l-1.433-1.947.594-.406c4.596-3.146 4.304-3.018 5.627-2.465zm-18.63 1.41c0 .038-.434.954-.964 2.038-.942 1.922-.96 1.979-.704 2.368.235.359.364.4 1.267.4 1.486 0 1.561.053 1.168.823-.246.483-.287.719-.17.976.085.187 1.966 1.994 4.18 4.015 2.213 2.021 4.024 3.732 4.024 3.802 0 .07-4.437.127-9.861.127-9.074 0-9.905-.022-10.41-.275-.902-.452-.917-.713-.26-4.673.642-3.872.835-4.578 1.455-5.32.675-.81 1.18-1.05 5.713-2.722 4.383-1.617 4.563-1.678 4.563-1.558zm24.988.879c1.167.417 2.723.983 3.458 1.257a134.1 134.1 0 002.043.744c1.363.476 2.333 1.373 2.745 2.54.125.354.491 2.235.814 4.181.656 3.96.642 4.22-.26 4.673-.505.253-1.336.275-10.41.275-5.424 0-9.862-.057-9.862-.127s1.811-1.781 4.025-3.802c2.213-2.021 4.094-3.828 4.18-4.015.117-.257.075-.493-.17-.976-.394-.77-.319-.823 1.168-.823.903 0 1.031-.041 1.266-.4.256-.39.238-.447-.703-2.368-.531-1.084-.965-2.008-.965-2.054 0-.046.123-.035.275.026.15.06 1.23.452 2.396.869zm-20.433 4.162a934.043 934.043 0 002.782 5.068c.208.368.32.668.251.668-.192 0-4.987-4.428-5.044-4.658-.027-.11.132-.51.354-.889.43-.735.522-1.5.214-1.807-.103-.104-.616-.194-1.139-.2-1.571-.018-1.571-.019-.819-1.587.483-1.006.699-1.314.825-1.178.095.1 1.253 2.163 2.576 4.583zm17.002-1.936c-.144.059-.69.112-1.213.118-.523.006-1.035.096-1.139.2-.307.307-.216 1.072.215 1.807.221.379.38.779.353.889-.056.226-4.85 4.658-5.039 4.658-.066 0 .085-.371.335-.825.251-.453 1.463-2.663 2.694-4.91 1.23-2.248 2.34-4.253 2.466-4.455.223-.36.244-.336.91 1.022.595 1.214.647 1.403.418 1.496zm-9.46.979c.003.078-.18.385-.408.682-.347.456-.396.643-.314 1.194.055.359.27 1.743.48 3.076l.382 2.423-.463.916c-.255.504-.531.917-.615.917-.084 0-.36-.41-.612-.909l-.458-.909.378-2.352c.637-3.963.629-3.71.14-4.447-.464-.703-.467-.687.293-1.555l.306-.35.444.586c.243.322.445.65.447.727zm-3.075 3.158c-.13.778-.257 1.485-.283 1.57-.057.192-.695-.808-.819-1.282-.062-.238.089-.577.508-1.138.327-.439.649-.745.713-.68.065.064.012.753-.119 1.53zm4.954-.743c.57.742.567.998-.015 1.921l-.346.55-.268-1.572c-.252-1.484-.252-2.002.002-1.703.061.073.343.434.627.803z"/></symbol><symbol viewBox="0 0 50 50" id="forum-img4" xmlns="http://www.w3.org/2000/svg"><path clip-rule="evenodd" d="M7.404.228c-2.552 1.11-2.82 4.572-.46 5.954l.707.414v6.366c0 6.27.004 6.37.328 6.663.3.27.646.301 3.91.344l3.58.048L15.427 22l-.043 1.983-2.987.043-2.987.042-.186-.45C8.97 23.004 8 22.11 7.353 21.895c-1.324-.441-2.7-.037-3.649 1.072a3.132 3.132 0 000 4.063c.95 1.11 2.325 1.513 3.65 1.072.645-.215 1.615-1.11 1.87-1.723l.185-.45 2.987.043 2.987.042.041 3.974c.05 4.688-.001 4.539 1.545 4.539h.99v5.936h-2.943c-2.653 0-2.969.028-3.202.285-.341.378-.328 1.009.027 1.33.249.225.755.26 3.881.26 3.455 0 3.607-.014 3.893-.33.271-.299.302-.645.345-3.909l.047-3.581 1.983.044 1.984.043.042 2.987.042 2.986-.45.186c-.613.255-1.508 1.225-1.722 1.87-.442 1.325-.038 2.7 1.072 3.65a3.132 3.132 0 004.062 0c1.11-.95 1.514-2.325 1.072-3.65-.214-.645-1.109-1.615-1.723-1.87l-.45-.186.043-2.986.042-2.987 3.974-.042c4.688-.049 4.54.002 4.54-1.544v-.991H40.452V43.4l-.706.414c-1.895 1.11-2.197 3.834-.584 5.251 1.418 1.245 3.036 1.245 4.455 0 1.613-1.417 1.31-4.14-.584-5.251l-.706-.414v-6.365c0-6.27-.005-6.37-.329-6.663-.3-.271-.646-.302-3.91-.345l-3.58-.047.043-1.984.044-1.983 2.986-.042 2.987-.043.186.45c.254.614 1.224 1.508 1.87 1.723 1.324.441 2.7.037 3.649-1.072a3.132 3.132 0 000-4.063c-.95-1.11-2.325-1.513-3.65-1.072-.645.215-1.615 1.11-1.87 1.723l-.185.45-2.987-.042-2.986-.043-.042-3.974c-.05-4.688.001-4.539-1.545-4.539h-.99V9.535h2.943c2.653 0 2.969-.029 3.202-.286.341-.377.328-1.008-.027-1.33-.249-.225-.755-.259-3.881-.259-3.455 0-3.607.013-3.893.329-.271.299-.302.645-.345 3.91l-.047 3.58-1.983-.043-1.984-.044-.042-2.986-.042-2.987.45-.186c.613-.255 1.508-1.225 1.722-1.87.442-1.324.038-2.7-1.072-3.65a3.132 3.132 0 00-4.062 0c-1.11.95-1.514 2.326-1.072 3.65.215.645 1.109 1.615 1.723 1.87l.45.186-.043 2.987-.042 2.986-3.974.042c-4.688.05-4.54-.001-4.54 1.544v.991H9.526V6.596l.706-.414c1.895-1.11 2.198-3.834.584-5.25C9.784.025 8.483-.243 7.405.227zm2.2 2.306c.507.603.446 1.269-.166 1.807-.775.682-1.99.222-2.192-.83-.14-.729.54-1.474 1.342-1.474.479 0 .68.098 1.015.497zM25.6 5.075c.241.125.53.447.64.715.433 1.045-.682 2.144-1.734 1.708-.686-.284-1.036-1.061-.769-1.707.193-.465.79-.923 1.22-.936.112-.004.401.096.643.22zm19.98.395c-1.258.38-2.159 1.696-2.159 3.152 0 3.61 4.941 4.486 6.346 1.124.841-2.014-.847-4.444-3.066-4.412-.386.005-.89.067-1.121.136zm1.89 2.126c.688.579.68 1.43-.016 2.017-.603.507-1.269.446-1.807-.165-.766-.87-.126-2.2 1.081-2.247.144-.005.478.173.742.395zm-7.227.35c-.348.384-.326.896.054 1.276.61.61 1.562.213 1.562-.652 0-.8-1.08-1.217-1.616-.624zm-7.678 17.053v7.576H17.413l-.04-7.42c-.023-4.08-.007-7.508.034-7.617.06-.155 1.667-.188 7.617-.156l7.54.04V25zm-11.722-4.147l-.384.384v7.526l.384.383.383.384h7.526l.383-.384.384-.383v-7.526l-.384-.384-.383-.383h-7.526l-.383.383zM27.488 25v2.499H22.49V22.499h5V25zm-20.633-1.18c.242.126.53.447.64.715.434 1.045-.681 2.144-1.733 1.708-.687-.284-1.037-1.061-.769-1.707.193-.465.79-.923 1.22-.936.112-.003.401.096.642.22zm37.489 0c.241.126.53.447.64.715.434 1.045-.682 2.144-1.734 1.708-.686-.284-1.036-1.061-.768-1.707.192-.465.789-.923 1.22-.936.112-.003.4.096.642.22zM1.943 38.404C.393 39.131-.411 41.06.21 42.55c.601 1.438 1.946 2.242 3.484 2.083 2.957-.305 3.94-4.16 1.51-5.92-.856-.62-2.307-.758-3.262-.309zM4.33 40.55c.683.776.222 1.991-.83 2.193-.728.14-1.474-.54-1.474-1.342 0-.48.098-.68.497-1.015.603-.508 1.27-.447 1.807.164zm4.047.2c-.342.377-.329 1.008.027 1.33.908.822 2.142-.438 1.276-1.304-.39-.39-.964-.401-1.303-.027zM25.6 42.563c.241.125.53.446.64.714.433 1.046-.682 2.145-1.734 1.709-.686-.285-1.036-1.062-.769-1.708.193-.465.79-.922 1.22-.936.112-.003.401.096.643.221zm16.64 3.093c.612.538.673 1.203.166 1.806-.336.4-.536.498-1.016.498-.802 0-1.48-.746-1.341-1.474.117-.614.762-1.182 1.341-1.182.248 0 .631.158.85.352z"/></symbol><symbol viewBox="0 0 51 50" id="forum-img5" xmlns="http://www.w3.org/2000/svg"><path clip-rule="evenodd" d="M26.893.302c-1.773.62-3.087 1.962-3.685 3.762-.204.614-.244 1.287-.2 3.4.047 2.336.094 2.723.41 3.41.738 1.605 2.125 2.793 3.773 3.23l.669.179v10.81l-5.01 3.301-5.01 3.302-1.877.112c-1.031.061-2.035.15-2.23.197-.306.074-.354.023-.354-.38 0-.761-.405-.985-1.783-.985-1.191 0-1.208-.006-1.208-.404 0-.222-.073-.54-.162-.708-.156-.291-.38-.305-5.006-.305-3.556 0-4.892.05-5.031.19C.047 29.553 0 31.69 0 38.057c0 7.478.029 8.485.247 8.704.306.306.548.312.943.024.294-.215.307-.513.35-8.185l.045-7.961h7.229v17.786h-.708c-.655 0-.708-.03-.708-.404 0-.604-.28-1.013-.695-1.013-.458 0-.678.256-.747.866l-.054.472-2.691.079C.425 48.507 0 48.611 0 49.208c0 .149.13.388.288.532.254.23.831.26 4.934.26 4.3 0 4.665-.021 4.906-.288.143-.158.26-.512.26-.787v-.499h1.235c1.346 0 1.756-.218 1.756-.936 0-.297.062-.343.354-.262.448.123 5.038 1.044 7.83 1.57 3.288.621 6.861 1.086 8.422 1.096 1.561.01 2.526-.26 4.564-1.273 2.615-1.3 6.528-3.865 10.923-7.159 3.462-2.593 3.674-2.784 4.283-3.848.878-1.533.77-2.987-.311-4.186-.745-.826-1.602-1.206-2.73-1.21-.75-.004-1.168.123-2.538.763l-1.64.768-6.55-4.33-6.552-4.33.005-1.12.005-1.12.739-.45c.579-.351.79-.41.978-.27.51.377 1.58.804 2.233.892 1.243.168 2.317-.384 3.976-2.042 2.386-2.383 3.403-4.33 2.86-5.475-.338-.713-.764-.946-1.895-1.037-2.091-.167-6.198 1.127-7.285 2.296-.754.812-1.043 1.592-1.028 2.78.013 1.033-.126 1.495-.45 1.495-.076 0-.138-1.52-.138-3.377v-3.379l.669-.177c1.02-.27 2.257-1.04 2.85-1.773 1.188-1.466 1.403-2.365 1.335-5.56-.053-2.464-.062-2.522-.57-3.553C32.442.63 29.523-.619 26.893.302zm3.61 1.7c3.194 1.596 3.075 5.956-.204 7.49-1.515.709-3.364.349-4.615-.899-1.997-1.99-1.475-5.255 1.048-6.557 1.358-.7 2.418-.71 3.771-.034zm-2.398 1.285c-.192.274-.245.803-.245 2.44 0 1.88.031 2.122.314 2.405.174.173.386.315.473.315.086 0 .299-.142.472-.315.283-.283.315-.525.315-2.405 0-2.226-.16-2.79-.787-2.79-.164 0-.407.158-.542.35zm-1.48 7.7c1.687.691 3.941.372 5.452-.774.45-.34.543-.37.456-.14-.06.158-.109.356-.109.44 0 .082-.326.5-.725.926-.804.86-2.002 1.415-3.052 1.415-.935 0-2.22-.549-2.856-1.22-1.148-1.21-1.506-2.134-.544-1.4.294.225.914.564 1.377.753zm12.004 4.953a.42.42 0 01.249.365c0 .78-2.31 3.652-3.815 4.742-.718.52-1.868.638-2.404.246-.279-.204-.242-.253.567-.771 1.172-.75 1.337-.966 1.114-1.456-.252-.553-.867-.497-1.916.172l-.865.554-.052-.417c-.07-.571.241-1.26.772-1.707 1.074-.903 5.418-2.086 6.35-1.728zm-3.844 14.464c3.247 2.141 5.96 3.946 6.03 4.01.069.063-.8.527-1.933 1.03-1.643.732-2.077.99-2.15 1.285-.051.202-.006.474.101.602.43.517.86.366 6.343-2.226 1.715-.811 3.293-1.474 3.507-1.474.214 0 .623.097.909.216 1.293.54 1.608 2.006.702 3.262-.604.837-.262.548-3.748 3.178-3.326 2.51-7.61 5.377-9.76 6.533-2.286 1.228-3.417 1.606-4.804 1.606-1.63 0-6.706-.781-12.038-1.853l-4.486-.901-.042-6.077-.04-6.077.969-.101c2.708-.283 5.267-.022 8.127.83 3.335.992 10.835 3.623 11.163 3.915.706.629.661 1.648-.105 2.414-.593.593-.755.589-5.925-.163-5.632-.82-6.302-.885-6.593-.643-.3.249-.301.698-.003.996.262.262.56.314 6.95 1.213 5.242.738 5.434.728 6.597-.344.826-.761 1.074-1.435.985-2.672-.077-1.056-.39-1.586-1.286-2.176-.808-.531-12.032-4.306-13.683-4.601-.156-.028-.286-.112-.287-.187-.005-.191 8.249-5.615 8.44-5.547.087.031 2.814 1.81 6.06 3.951zm-22.98 9.217v7.407l-.669-.049-.669-.048-.04-7.359-.042-7.358h1.42v7.407z"/></symbol><symbol viewBox="0 0 21 28" id="scroll-by" xmlns="http://www.w3.org/2000/svg"><rect x=".5" y=".5" width="20" height="27" rx="10"/><rect x="10" y="6" width="1" height="5" rx=".5"/></symbol><symbol viewBox="0 0 21 18" id="tg" xmlns="http://www.w3.org/2000/svg"><path d="M18.665.717L.935 7.554c-1.21.486-1.203 1.16-.222 1.462l4.552 1.42L15.797 3.79c.498-.303.953-.14.58.192l-8.534 7.7h-.002l.002.002-.314 4.692c.46 0 .663-.211.921-.46l2.211-2.15 4.6 3.397c.847.467 1.456.227 1.667-.785l3.02-14.228c.308-1.24-.474-1.8-1.283-1.434z"/></symbol><symbol viewBox="0 0 24 14" id="vk" xmlns="http://www.w3.org/2000/svg"><path clip-rule="evenodd" d="M22.72 1.188c.167-.53 0-.914-.738-.914h-2.455c-.619 0-.905.337-1.072.697 0 0-1.263 3.075-3.026 5.069-.572.576-.834.768-1.144.768-.167 0-.381-.192-.381-.72V1.163c0-.625-.19-.913-.715-.913h-3.86c-.382 0-.62.288-.62.577 0 .6.881.744.976 2.426v3.653c0 .793-.14.938-.453.938-.833 0-2.859-3.1-4.074-6.63C4.922.514 4.682.25 4.062.25H1.584C.869.25.75.586.75.947c0 .648.834 3.915 3.884 8.239 2.026 2.953 4.909 4.54 7.506 4.54 1.573 0 1.764-.36 1.764-.96V10.53c0-.72.143-.84.643-.84.357 0 1.001.191 2.455 1.609 1.667 1.681 1.953 2.45 2.883 2.45h2.454c.715 0 1.049-.36.858-1.057-.214-.697-1.025-1.705-2.073-2.906-.572-.672-1.43-1.417-1.692-1.778-.357-.48-.262-.672 0-1.105-.024 0 2.979-4.276 3.288-5.718"/></symbol></svg>